<?xml version="1.0" encoding="UTF-8"?><svg xmlns="http://www.w3.org/2000/svg" xmlns:xlink="http://www.w3.org/1999/xlink" width="420" height="420" viewBox="0 0 420 420"><defs><symbol id="s0" overflow="visible"><text x="0" y="0" text-anchor="middle" dominant-baseline="middle" font-family="Arial" font-size="12" fill="#000" fill-opacity="0.45">(&gt;&lt;)</text></symbol><symbol id="s1" overflow="visible"><text x="0" y="0" text-anchor="middle" dominant-baseline="middle" font-family="Arial" font-size="12" fill="#000" fill-opacity="0.45">:-D</text></symbol><symbol id="s2" overflow="visible"><text x="0" y="0" text-anchor="middle" dominant-baseline="middle" font-family="Arial" font-size="12" fill="#000" fill-opacity="1">(x_x)</text></symbol><symbol id="s3" overflow="visible"><text x="0" y="0" text-anchor="middle" dominant-baseline="middle" font-family="Arial" font-size="12" fill="#000" fill-opacity="0.9">($_$)</text></symbol><symbol id="s4" overflow="visible"><text x="0" y="0" text-anchor="middle" dominant-baseline="middle" font-family="Arial" font-size="12" fill="#000" fill-opacity="0.45">8-)</text></symbol><symbol id="s5" overflow="visible"><text x="0" y="0" text-anchor="middle" dominant-baseline="middle" font-family="Arial" font-size="12" fill="#000" fill-opacity="0.6">(..)</text></symbol><symbol id="s6" overflow="visible"><text x="0" y="0" text-anchor="middle" dominant-baseline="middle" font-family="Arial" font-size="12" fill="#000" fill-opacity="1">;-)</text></symbol><symbol id="s7" overflow="visible"><text x="0" y="0" text-anchor="middle" dominant-baseline="middle" font-family="Arial" font-size="12" fill="#000" fill-opacity="0.45">^^</text></symbol><symbol id="s8" overflow="visible"><text x="0" y="0" text-anchor="middle" dominant-baseline="middle" font-family="Arial" font-size="12" fill="#000" fill-opacity="0.45">(T_T)</text></symbol><symbol id="s9" overflow="visible"><text x="0" y="0" text-anchor="middle" dominant-baseline="middle" font-family="Arial" font-size="12" fill="#000" fill-opacity="1">($_$)</text></symbol><symbol id="s10" overflow="visible"><text x="0" y="0" text-anchor="middle" dominant-baseline="middle" font-family="Arial" font-size="12" fill="#000" fill-opacity="0.9">:-O</text></symbol><symbol id="s11" overflow="visible"><text x="0" y="0" text-anchor="middle" dominant-baseline="middle" font-family="Arial" font-size="12" fill="#000" fill-opacity="0.9">:-)</text></symbol><symbol id="s12" overflow="visible"><text x="0" y="0" text-anchor="middle" dominant-baseline="middle" font-family="Arial" font-size="12" fill="#000" fill-opacity="0.6">;-)</text></symbol><symbol id="s13" overflow="visible"><text x="0" y="0" text-anchor="middle" dominant-baseline="middle" font-family="Arial" font-size="12" fill="#000" fill-opacity="0.75">(_)</text></symbol><symbol id="s14" overflow="visible"><text x="0" y="0" text-anchor="middle" dominant-baseline="middle" font-family="Arial" font-size="12" fill="#000" fill-opacity="0.6">:-O</text></symbol><symbol id="s15" overflow="visible"><text x="0" y="0" text-anchor="middle" dominant-baseline="middle" font-family="Arial" font-size="12" fill="#000" fill-opacity="0.9">:-D</text></symbol><symbol id="s16" overflow="visible"><text x="0" y="0" text-anchor="middle" dominant-baseline="middle" font-family="Arial" font-size="12" fill="#000" fill-opacity="0.9">&lt;3</text></symbol><symbol id="s17" overflow="visible"><text x="0" y="0" text-anchor="middle" dominant-baseline="middle" font-family="Arial" font-size="12" fill="#000" fill-opacity="0.6">:-D</text></symbol><symbol id="s18" overflow="visible"><text x="0" y="0" text-anchor="middle" dominant-baseline="middle" font-family="Arial" font-size="12" fill="#000" fill-opacity="0.45">(--)</text></symbol><symbol id="s19" overflow="visible"><text x="0" y="0" text-anchor="middle" dominant-baseline="middle" font-family="Arial" font-size="12" fill="#000" fill-opacity="0.6">&lt;3</text></symbol><symbol id="s20" overflow="visible"><text x="0" y="0" text-anchor="middle" dominant-baseline="middle" font-family="Arial" font-size="12" fill="#000" fill-opacity="0.45">&lt;3</text></symbol><symbol id="s21" overflow="visible"><text x="0" y="0" text-anchor="middle" dominant-baseline="middle" font-family="Arial" font-size="12" fill="#000" fill-opacity="0.75">:/</text></symbol><pattern id="pat_hoodieTop" patternUnits="userSpaceOnUse" patternContentUnits="userSpaceOnUse" x="0" y="0" width="420" height="420"><rect x="0" y="0" width="420" height="420" fill="#111111"/><use xlink:href="#s0" transform="translate(189 87) rotate(-10) scale(1)"/><use xlink:href="#s1" transform="translate(234 364) rotate(-4) scale(1)"/><use xlink:href="#s2" transform="translate(178 389) rotate(8) scale(1)"/><use xlink:href="#s3" transform="translate(250 101) rotate(13) scale(1)"/><use xlink:href="#s4" transform="translate(278 251) rotate(2) scale(1)"/><use xlink:href="#s5" transform="translate(298 170) rotate(13) scale(1)"/><use xlink:href="#s6" transform="translate(255 173) rotate(5) scale(1)"/><use xlink:href="#s7" transform="translate(225 315) rotate(-1) scale(1)"/><use xlink:href="#s8" transform="translate(180 319) rotate(2) scale(1)"/><use xlink:href="#s9" transform="translate(139 88) rotate(3) scale(1)"/><use xlink:href="#s10" transform="translate(301 103) rotate(-7) scale(1)"/><use xlink:href="#s11" transform="translate(236 274) rotate(5) scale(1)"/><use xlink:href="#s12" transform="translate(254 400) rotate(-11) scale(1)"/><use xlink:href="#s6" transform="translate(294 408) rotate(-10) scale(1)"/><use xlink:href="#s13" transform="translate(268 213) rotate(5) scale(1)"/><use xlink:href="#s14" transform="translate(127 406) rotate(-4) scale(1)"/><use xlink:href="#s15" transform="translate(277 353) rotate(-3) scale(1)"/><use xlink:href="#s16" transform="translate(307 221) rotate(-8) scale(1)"/><use xlink:href="#s17" transform="translate(218 53) rotate(2) scale(1)"/><use xlink:href="#s14" transform="translate(240 232) rotate(2) scale(1)"/><use xlink:href="#s18" transform="translate(126 281) rotate(-3) scale(1)"/><use xlink:href="#s19" transform="translate(136 373) rotate(13) scale(1)"/><use xlink:href="#s12" transform="translate(167 57) rotate(-6) scale(1)"/><use xlink:href="#s20" transform="translate(163 279) rotate(8) scale(1)"/><use xlink:href="#s21" transform="translate(258 319) rotate(10) scale(1)"/></pattern></defs><path d="M111.26,419.63c-.87-16.12.21-44.19,16.19-68.95,11.57-17.93,31.28-34.63,36.3-38.4,4.14-3.11,8.1-6.44,12.32-9.44,2.26-1.6,4.3-3.51,6.53-5.16.62-.46,1.9-1.39,3.18-2.99.84-1.04,1.39-2.01,1.74-2.7.29-.48.65-1.15.98-2.01,0,0,.35-.91.57-1.91.63-2.89.2-7.36.2-7.36-.28-2.88-.49-4.04-.83-6.78-.45-3.62-.5-5.04-.72-7.09-.33-3.05-.92-8.52-2.72-13.13-1.09-2.8-3.5-7.55-9.25-12.2,2.22.02,5.36.43,8.01,2.47,4.21,3.23,4.76,8.66,5.69,17.86.68,6.68.78,16.48,1.03,19.54.08.98.1,1.46.15,2.44.05,1.07.07,1.7.06,2.37,0,.6-.03,1.1-.04,1.46-.05.37-.14.78-.28,1.23-.09.28-.18.54-.28.78-.18.35-.31.67-.39.93-.15.45-.21.81-.22.89-.06.36-.07.67-.06.92.03.44.07,1.05.11,1.78.02.46.12,2.53.1,5.42-.01,1.6-.06,3.55-.19,5.77.04,1.63,0,4-.44,6.81-.23,1.49-.6,3.33-1.29,5.58-1.94,6.34-4.66,10.36-7.25,17.18-.37.99-1.04,3.07-.78,5.69.12,1.18.21,2.53.78,2.7,1.26.37,3.9-5.43,6.34-10.43,5.29-10.86,5.72-9.97,9.8-18.4,1.57-3.25,8.43-17.68,15.4-41.2,5.92-19.97,8.6-35.31,11.05-49.3.7-4.02,2.49-17.21,6.05-43.6,7.36-54.48.22-7.06,3.2-31.7.06-.52.97-8,.4-17.7-.32-5.52-.95-8.75-2.2-12-1.6-4.13-3.78-7.17-5.4-9.1-2.51-2.58-4.89-3.89-6.6-4.6-1.81-.76-1.68-.35-6.8-1.8-3.64-1.03-4.81-1.54-7.35-1.91-1.87-.27-3.43-.32-4.46-.31-4.7-1.56-10.54-.37-14.95-.33-.73-.54-1.83-1.19-3.24-1.35-1.85-.21-2.83.56-4.77,1.12-2.64.76-3.35.04-7.69.19-1.64.05-3.99.24-6.84.83-.56.29-1.32.78-1.85,1.63-.7,1.13-.55,2.18-1.19,2.45-.28.12-.77.11-1.66-.58-.42-.17-.77-.33-1.09-.5-1.29-.67-1.89-1.15-2.65-1.62-.77-.47-2.02-1.25-3.54-1.38-.62-.05-1.97-.06-3.63.91-.52.23-1.23.64-1.84,1.34-.97,1.12-1.11,2.33-1.38,2.29-.29-.04-.32-1.35-.35-2.33-.03-1,.02-1.42.07-2.86.05-1.57-.03-1.57.08-3.4.04-.69.06-1.32.07-1.94.04-1.4.07-1.73.07-1.94.08-2.13-.04-3.29-.02-4.41.03-1.22.24-2.96,1.1-5.1.83-1.86,1.71-3.76,2.65-5.7,1.08-2.22,2.16-4.35,3.25-6.4,4.42-8.9,8.74-14,18.04-19.25,2.88-1.62,4.36-2.75,5.78-3.48,2.81-1.44,5.07-2.25,7.31-3.05,3.34-1.19,5.94-1.86,8.87-2.62,2.91-.76,5.27-1.27,6.44-1.53,1.93-.42,3.54-.74,5.76-1.17,1.92-.38,3.53-.68,4.7-.9,1.83-.3,3.66-.6,5.49-.9,3.83-.3,7.09-.4,9.6-.43,3.68-.05,6.68-.09,10.71.29,3.02.29,5.34.69,8.1,1.17,3.16.55,5.82,1.11,7.78,1.56,3.49.72,7.72,1.76,12.45,3.32,1.35.44,5.95,1.99,11.93,4.7,4.87,2.21,11.14,5.42,18.13,10,4.18,3.9,8.81,8.82,13.31,14.92,2.81,3.81,5.15,7.51,7.09,10.94,1.25,2.09,2.53,4.47,3.76,7.14,1.22,2.65,2.18,5.16,2.94,7.45.87,2.27,1.72,4.86,2.44,7.75.77,3.05,1.25,5.88,1.56,8.4.98,3.79,1.6,7.06,2,9.6.08.53.4,2.56.7,5.3.34,3.15.51,5.87.6,8,.34,2.89.7,6.78.9,11.4.24,5.68.11,9.99,0,13.5-.05,1.52-.22,6.59-.9,14.4-.64,7.39-1.57,17.76-3.96,29.69-.31,1.55-1.14,5.57-2.44,10.71-.91,3.62-1.52,6.01-2.54,9.1-.9,2.73-2.26,6.38-4.28,10.6-1.4,3.07-2.89,6.21-4.48,9.4-1.33,2.68-2.66,5.28-4,7.8-3.46,4.87-6.59,8.81-9,11.69-5.03,6.04-7.74,9.29-12.1,12.91-1.71,1.42-5.05,4.03-7.3,5.8-2.24,1.75-4.1,3.19-5.36,4.16-6.71,5.65-11.12,3.94-5.58,12.19,14.74,17.18,27.64,36.35,40.18,53.56,12.54,18.87,13.55,41.79,12.09,63.31-68.66,0-137.31,0-205.97.01Z" fill="url(#pat_hoodieTop)"/><path d="M111.26,419.63c-.87-16.12.21-44.19,16.19-68.95,11.57-17.93,31.28-34.63,36.3-38.4,4.14-3.11,8.1-6.44,12.32-9.44,2.26-1.6,4.3-3.51,6.53-5.16.62-.46,1.9-1.39,3.18-2.99.84-1.04,1.39-2.01,1.74-2.7.29-.48.65-1.15.98-2.01,0,0,.35-.91.57-1.91.63-2.89.2-7.36.2-7.36-.28-2.88-.49-4.04-.83-6.78-.45-3.62-.5-5.04-.72-7.09-.33-3.05-.92-8.52-2.72-13.13-1.09-2.8-3.5-7.55-9.25-12.2,2.22.02,5.36.43,8.01,2.47,4.21,3.23,4.76,8.66,5.69,17.86.68,6.68.78,16.48,1.03,19.54.08.98.1,1.46.15,2.44.05,1.07.07,1.7.06,2.37,0,.6-.03,1.1-.04,1.46-.05.37-.14.78-.28,1.23-.09.28-.18.54-.28.78-.18.35-.31.67-.39.93-.15.45-.21.81-.22.89-.06.36-.07.67-.06.92.03.44.07,1.05.11,1.78.02.46.12,2.53.1,5.42-.01,1.6-.06,3.55-.19,5.77.04,1.63,0,4-.44,6.81-.23,1.49-.6,3.33-1.29,5.58-1.94,6.34-4.66,10.36-7.25,17.18-.37.99-1.04,3.07-.78,5.69.12,1.18.21,2.53.78,2.7,1.26.37,3.9-5.43,6.34-10.43,5.29-10.86,5.72-9.97,9.8-18.4,1.57-3.25,8.43-17.68,15.4-41.2,5.92-19.97,8.6-35.31,11.05-49.3.7-4.02,2.49-17.21,6.05-43.6,7.36-54.48.22-7.06,3.2-31.7.06-.52.97-8,.4-17.7-.32-5.52-.95-8.75-2.2-12-1.6-4.13-3.78-7.17-5.4-9.1-2.51-2.58-4.89-3.89-6.6-4.6-1.81-.76-1.68-.35-6.8-1.8-3.64-1.03-4.81-1.54-7.35-1.91-1.87-.27-3.43-.32-4.46-.31-4.7-1.56-10.54-.37-14.95-.33-.73-.54-1.83-1.19-3.24-1.35-1.85-.21-2.83.56-4.77,1.12-2.64.76-3.35.04-7.69.19-1.64.05-3.99.24-6.84.83-.56.29-1.32.78-1.85,1.63-.7,1.13-.55,2.18-1.19,2.45-.28.12-.77.11-1.66-.58-.42-.17-.77-.33-1.09-.5-1.29-.67-1.89-1.15-2.65-1.62-.77-.47-2.02-1.25-3.54-1.38-.62-.05-1.97-.06-3.63.91-.52.23-1.23.64-1.84,1.34-.97,1.12-1.11,2.33-1.38,2.29-.29-.04-.32-1.35-.35-2.33-.03-1,.02-1.42.07-2.86.05-1.57-.03-1.57.08-3.4.04-.69.06-1.32.07-1.94.04-1.4.07-1.73.07-1.94.08-2.13-.04-3.29-.02-4.41.03-1.22.24-2.96,1.1-5.1.83-1.86,1.71-3.76,2.65-5.7,1.08-2.22,2.16-4.35,3.25-6.4,4.42-8.9,8.74-14,18.04-19.25,2.88-1.62,4.36-2.75,5.78-3.48,2.81-1.44,5.07-2.25,7.31-3.05,3.34-1.19,5.94-1.86,8.87-2.62,2.91-.76,5.27-1.27,6.44-1.53,1.93-.42,3.54-.74,5.76-1.17,1.92-.38,3.53-.68,4.7-.9,1.83-.3,3.66-.6,5.49-.9,3.83-.3,7.09-.4,9.6-.43,3.68-.05,6.68-.09,10.71.29,3.02.29,5.34.69,8.1,1.17,3.16.55,5.82,1.11,7.78,1.56,3.49.72,7.72,1.76,12.45,3.32,1.35.44,5.95,1.99,11.93,4.7,4.87,2.21,11.14,5.42,18.13,10,4.18,3.9,8.81,8.82,13.31,14.92,2.81,3.81,5.15,7.51,7.09,10.94,1.25,2.09,2.53,4.47,3.76,7.14,1.22,2.65,2.18,5.16,2.94,7.45.87,2.27,1.72,4.86,2.44,7.75.77,3.05,1.25,5.88,1.56,8.4.98,3.79,1.6,7.06,2,9.6.08.53.4,2.56.7,5.3.34,3.15.51,5.87.6,8,.34,2.89.7,6.78.9,11.4.24,5.68.11,9.99,0,13.5-.05,1.52-.22,6.59-.9,14.4-.64,7.39-1.57,17.76-3.96,29.69-.31,1.55-1.14,5.57-2.44,10.71-.91,3.62-1.52,6.01-2.54,9.1-.9,2.73-2.26,6.38-4.28,10.6-1.4,3.07-2.89,6.21-4.48,9.4-1.33,2.68-2.66,5.28-4,7.8-3.46,4.87-6.59,8.81-9,11.69-5.03,6.04-7.74,9.29-12.1,12.91-1.71,1.42-5.05,4.03-7.3,5.8-2.24,1.75-4.1,3.19-5.36,4.16-6.71,5.65-11.12,3.94-5.58,12.19,14.74,17.18,27.64,36.35,40.18,53.56,12.54,18.87,13.55,41.79,12.09,63.31-68.66,0-137.31,0-205.97.01Z" fill="none" stroke="#000" stroke-opacity="0.25" stroke-width="1"/></svg>