<?xml version="1.0" encoding="UTF-8"?><svg xmlns="http://www.w3.org/2000/svg" width="420" height="420" viewBox="0 0 420 420"><defs><pattern id="pat_shirtTop" patternUnits="userSpaceOnUse" patternContentUnits="userSpaceOnUse" x="0" y="0" width="420" height="420"><rect x="0" y="0" width="420" height="420" fill="#ff3d71"/><g transform="rotate(-68 210 210)"><rect x="50" y="-294" width="4" height="1008" fill="#111111"/><rect x="55" y="-294" width="8" height="1008" fill="#f43f5e"/><rect x="64" y="-294" width="8" height="1008" fill="#f97316"/><rect x="74" y="-294" width="11" height="1008" fill="#ff3d71"/><rect x="86" y="-294" width="5" height="1008" fill="#f43f5e"/><rect x="91" y="-294" width="7" height="1008" fill="#f97316"/><rect x="99" y="-294" width="6" height="1008" fill="#ff3d71"/><rect x="107" y="-294" width="14" height="1008" fill="#14b8a6"/><rect x="122" y="-294" width="13" height="1008" fill="#22c55e"/><rect x="136" y="-294" width="8" height="1008" fill="#111111"/><rect x="144" y="-294" width="13" height="1008" fill="#f43f5e"/><rect x="158" y="283" width="10" height="123" fill="#f97316"/><rect x="170" y="-294" width="14" height="1008" fill="#ff3d71"/><rect x="185" y="-294" width="8" height="1008" fill="#14b8a6"/><rect x="193" y="-294" width="6" height="1008" fill="#22c55e"/><rect x="200" y="-294" width="4" height="1008" fill="#111111"/><rect x="206" y="-294" width="6" height="1008" fill="#f43f5e"/><rect x="213" y="-294" width="4" height="1008" fill="#f97316"/><rect x="219" y="-294" width="13" height="1008" fill="#ff3d71"/><rect x="234" y="-294" width="10" height="1008" fill="#14b8a6"/><rect x="246" y="-294" width="16" height="1008" fill="#22c55e"/><rect x="263" y="-294" width="11" height="1008" fill="#111111"/><rect x="275" y="-294" width="6" height="1008" fill="#f43f5e"/><rect x="283" y="-294" width="11" height="1008" fill="#f97316"/><rect x="295" y="-294" width="15" height="1008" fill="#ff3d71"/><rect x="311" y="292" width="8" height="132" fill="#14b8a6"/><rect x="321" y="-294" width="10" height="1008" fill="#22c55e"/><rect x="331" y="302" width="7" height="131" fill="#111111"/><rect x="339" y="-294" width="8" height="1008" fill="#f43f5e"/><rect x="347" y="-294" width="12" height="1008" fill="#f97316"/><rect x="361" y="275" width="13" height="79" fill="#ff3d71"/><rect x="376" y="-294" width="11" height="1008" fill="#14b8a6"/></g></pattern></defs><path d="M116.67,408.9c.08-1.81.26-5.22.64-9.56.33-3.84.6-6.87,1.2-10.95.21-1.38.89-5.82,2.21-11.61,1-4.33,1.95-7.62,2.3-8.82.89-3.02,2.47-8.33,5.25-14.76,1.9-4.41,4.72-10.83,9.94-18.19,3.37-4.74,6.43-8.03,8.47-10.21,2.41-2.56,5.66-5.51,12.15-11.41,4.29-3.89,6.05-5.37,8.1-6.96,1.76-1.36,3.36-2.48,6.54-4.73,3.21-2.26,4.81-3.4,6.6-4.53.87-.56,1.83-1.14,3.26-2.12,3-2.07,3.79-2.93,4.1-3.29,1.62-1.88,1.92-3.46,2.13-3.4.53.15-1.62,9.63-4.33,20.22-3.51,13.74-3.73,14.58-4.02,16.53-1.28,8.81-2.38,18.65,1.74,23.14,4.62,5.01,14.39-.48,23.68-5.7,2.18-1.22,9.9-5.72,18.12-14.15,5.44-5.59,10.27-11.95,10.27-11.95,1.42-2.1,3.52-5.13,6.24-8.68,2.06-2.69,3.1-4.04,4.09-5.05.99-1,7.17-7.26,13.18-6.34,3.17.48,4.17,2.64,14.27,15.75,4.06,5.28,4.78,6.04,5.95,7.54,1.05,1.34,1.78,2.36,1.97,2.61,2.14,2.93,8.7,11.3,10.47,13.6,1.57,2.04,6.56,8.56,10.68,16.7,6.77,13.35,8.43,25.59,9.21,31.74.85,6.75.9,12.24.92,16.7.05,7.62-.41,14.08-.92,18.99H116.39c0-3.98.12-7.69.28-11.1h0Z" fill="url(#pat_shirtTop)"/><path d="M116.67,408.9c.08-1.81.26-5.22.64-9.56.33-3.84.6-6.87,1.2-10.95.21-1.38.89-5.82,2.21-11.61,1-4.33,1.95-7.62,2.3-8.82.89-3.02,2.47-8.33,5.25-14.76,1.9-4.41,4.72-10.83,9.94-18.19,3.37-4.74,6.43-8.03,8.47-10.21,2.41-2.56,5.66-5.51,12.15-11.41,4.29-3.89,6.05-5.37,8.1-6.96,1.76-1.36,3.36-2.48,6.54-4.73,3.21-2.26,4.81-3.4,6.6-4.53.87-.56,1.83-1.14,3.26-2.12,3-2.07,3.79-2.93,4.1-3.29,1.62-1.88,1.92-3.46,2.13-3.4.53.15-1.62,9.63-4.33,20.22-3.51,13.74-3.73,14.58-4.02,16.53-1.28,8.81-2.38,18.65,1.74,23.14,4.62,5.01,14.39-.48,23.68-5.7,2.18-1.22,9.9-5.72,18.12-14.15,5.44-5.59,10.27-11.95,10.27-11.95,1.42-2.1,3.52-5.13,6.24-8.68,2.06-2.69,3.1-4.04,4.09-5.05.99-1,7.17-7.26,13.18-6.34,3.17.48,4.17,2.64,14.27,15.75,4.06,5.28,4.78,6.04,5.95,7.54,1.05,1.34,1.78,2.36,1.97,2.61,2.14,2.93,8.7,11.3,10.47,13.6,1.57,2.04,6.56,8.56,10.68,16.7,6.77,13.35,8.43,25.59,9.21,31.74.85,6.75.9,12.24.92,16.7.05,7.62-.41,14.08-.92,18.99H116.39c0-3.98.12-7.69.28-11.1h0Z" fill="none" stroke="#000" stroke-opacity="0.25" stroke-width="1"/></svg>