<?xml version="1.0" encoding="UTF-8"?><svg xmlns="http://www.w3.org/2000/svg" width="420" height="420" viewBox="0 0 420 420"><defs><pattern id="pat_tankTop" patternUnits="userSpaceOnUse" patternContentUnits="userSpaceOnUse" x="0" y="0" width="420" height="420"><rect x="0" y="0" width="420" height="420" fill="#111111"/><g transform="rotate(70 210 210)"><rect x="61" y="-294" width="6" height="1008" fill="#111111"/><rect x="67" y="-294" width="8" height="1008" fill="#00d18f"/><rect x="76" y="-294" width="4" height="1008" fill="#14b8a6"/><rect x="80" y="-294" width="7" height="1008" fill="#111111"/><rect x="88" y="-294" width="9" height="1008" fill="#00d18f"/><rect x="97" y="-294" width="11" height="1008" fill="#14b8a6"/><rect x="109" y="-294" width="6" height="1008" fill="#111111"/><rect x="116" y="275" width="9" height="140" fill="#00d18f"/><rect x="126" y="328" width="5" height="87" fill="#00d18f"/><rect x="132" y="-294" width="5" height="1008" fill="#14b8a6"/><rect x="137" y="-294" width="9" height="1008" fill="#111111"/><rect x="148" y="-294" width="8" height="1008" fill="#00d18f"/><rect x="157" y="-294" width="10" height="1008" fill="#14b8a6"/><rect x="167" y="-294" width="12" height="1008" fill="#111111"/><rect x="180" y="276" width="5" height="113" fill="#00d18f"/><rect x="187" y="298" width="6" height="106" fill="#14b8a6"/><rect x="193" y="-294" width="9" height="1008" fill="#111111"/><rect x="203" y="-294" width="7" height="1008" fill="#00d18f"/><rect x="210" y="-294" width="3" height="1008" fill="#14b8a6"/><rect x="214" y="-294" width="6" height="1008" fill="#111111"/><rect x="220" y="340" width="11" height="95" fill="#111111"/><rect x="231" y="286" width="3" height="77" fill="#111111"/><rect x="236" y="291" width="7" height="100" fill="#14b8a6"/><rect x="244" y="-294" width="9" height="1008" fill="#111111"/><rect x="253" y="-294" width="5" height="1008" fill="#00d18f"/><rect x="259" y="-294" width="11" height="1008" fill="#00d18f"/><rect x="271" y="-294" width="4" height="1008" fill="#14b8a6"/><rect x="276" y="-294" width="9" height="1008" fill="#111111"/><rect x="286" y="-294" width="11" height="1008" fill="#00d18f"/><rect x="298" y="-294" width="4" height="1008" fill="#14b8a6"/><rect x="302" y="-294" width="10" height="1008" fill="#111111"/><rect x="312" y="-294" width="7" height="1008" fill="#00d18f"/><rect x="319" y="-294" width="5" height="1008" fill="#14b8a6"/><rect x="324" y="-294" width="3" height="1008" fill="#111111"/><rect x="328" y="281" width="11" height="78" fill="#00d18f"/><rect x="340" y="-294" width="6" height="1008" fill="#14b8a6"/></g></pattern></defs><path d="M128.2,401.31c.89-8.3,2.12-14.2,3.62-21.48,2.43-11.77,3.69-17.92,6.76-25.21.91-2.17,2.33-5.25,4.7-10.42,2.32-5.05,3.21-6.85,4.34-8.91,1.8-3.26,3.34-5.55,4.7-7.58,4.07-6.06,7.64-10.21,10.12-13.08,2.61-3.02,3.96-4.58,6.14-6.44.78-.67,1.53-1.26,2.24-1.8.53-.39,1.67-1.22,4.8-3.13,2.84-1.72,2.76-1.56,4.11-2.46,2.72-1.81,3.29-2.62,3.6-2.43.84.5-3.38,6.34-5.71,14.93-.43,1.56-1.49,5.81-2.35,9.47-.62,2.6-1.28,5.58-1.99,8.91-1.28,6.05-1.93,9.07-2.35,12.13-.65,4.68-1.08,7.72-.72,11.94.28,3.33.84,9.12,4.59,11.5,0,0,.19.14.4.24,1.86.88,7.74.99,34.3-18.38,24.88-18.15,34.26-25.86,34.33-25.92h0c6.42-4.64,23.54-16.85,25.02-15.34.09.09.72.86,1.23,1.5.4.5.75.96,1.42,1.84.37.48.67.88,1.09,1.44.49.65.89,1.19,1.66,2.24.99,1.34,1.04,1.42,1.34,1.8.47.61.63.77,1.04,1.31.75.98,1.11,1.47,1.12,1.7.06.99-1.56,1.58-3.58,3.02-1.27.9-2.03,1.67-3.27,2.91-3.22,3.22-5.31,6.82-7.04,10.28h0c-8.15,15.2-10.91,28.08-10.91,28.08-1.96,6.42-3.02,14.28-1.9,28.84.54,7.14,1.68,16.42,4.12,27.18h-127.98c0-4.84.22-11.23,1.02-18.68l.04-.03Z" fill="url(#pat_tankTop)"/><path d="M128.2,401.31c.89-8.3,2.12-14.2,3.62-21.48,2.43-11.77,3.69-17.92,6.76-25.21.91-2.17,2.33-5.25,4.7-10.42,2.32-5.05,3.21-6.85,4.34-8.91,1.8-3.26,3.34-5.55,4.7-7.58,4.07-6.06,7.64-10.21,10.12-13.08,2.61-3.02,3.96-4.58,6.14-6.44.78-.67,1.53-1.26,2.24-1.8.53-.39,1.67-1.22,4.8-3.13,2.84-1.72,2.76-1.56,4.11-2.46,2.72-1.81,3.29-2.62,3.6-2.43.84.5-3.38,6.34-5.71,14.93-.43,1.56-1.49,5.81-2.35,9.47-.62,2.6-1.28,5.58-1.99,8.91-1.28,6.05-1.93,9.07-2.35,12.13-.65,4.68-1.08,7.72-.72,11.94.28,3.33.84,9.12,4.59,11.5,0,0,.19.14.4.24,1.86.88,7.74.99,34.3-18.38,24.88-18.15,34.26-25.86,34.33-25.92h0c6.42-4.64,23.54-16.85,25.02-15.34.09.09.72.86,1.23,1.5.4.5.75.96,1.42,1.84.37.48.67.88,1.09,1.44.49.65.89,1.19,1.66,2.24.99,1.34,1.04,1.42,1.34,1.8.47.61.63.77,1.04,1.31.75.98,1.11,1.47,1.12,1.7.06.99-1.56,1.58-3.58,3.02-1.27.9-2.03,1.67-3.27,2.91-3.22,3.22-5.31,6.82-7.04,10.28h0c-8.15,15.2-10.91,28.08-10.91,28.08-1.96,6.42-3.02,14.28-1.9,28.84.54,7.14,1.68,16.42,4.12,27.18h-127.98c0-4.84.22-11.23,1.02-18.68l.04-.03Z" fill="none" stroke="#000" stroke-opacity="0.25" stroke-width="1"/></svg>