<?xml version="1.0" encoding="UTF-8"?><svg xmlns="http://www.w3.org/2000/svg" xmlns:xlink="http://www.w3.org/1999/xlink" width="420" height="420" viewBox="0 0 420 420"><defs><symbol id="s0" overflow="visible"><text x="0" y="0" text-anchor="middle" dominant-baseline="middle" font-family="Arial" font-size="12" fill="#000" fill-opacity="1">&lt;3</text></symbol><symbol id="s1" overflow="visible"><text x="0" y="0" text-anchor="middle" dominant-baseline="middle" font-family="Arial" font-size="12" fill="#000" fill-opacity="0.45">:-O</text></symbol><symbol id="s2" overflow="visible"><text x="0" y="0" text-anchor="middle" dominant-baseline="middle" font-family="Arial" font-size="12" fill="#000" fill-opacity="0.45">;-)</text></symbol><symbol id="s3" overflow="visible"><text x="0" y="0" text-anchor="middle" dominant-baseline="middle" font-family="Arial" font-size="12" fill="#000" fill-opacity="0.75">&lt;3</text></symbol><symbol id="s4" overflow="visible"><text x="0" y="0" text-anchor="middle" dominant-baseline="middle" font-family="Arial" font-size="12" fill="#000" fill-opacity="1">:-P</text></symbol><symbol id="s5" overflow="visible"><text x="0" y="0" text-anchor="middle" dominant-baseline="middle" font-family="Arial" font-size="12" fill="#000" fill-opacity="0.45">(..)</text></symbol><symbol id="s6" overflow="visible"><text x="0" y="0" text-anchor="middle" dominant-baseline="middle" font-family="Arial" font-size="12" fill="#000" fill-opacity="0.75">:/</text></symbol><symbol id="s7" overflow="visible"><text x="0" y="0" text-anchor="middle" dominant-baseline="middle" font-family="Arial" font-size="12" fill="#000" fill-opacity="0.6">:-D</text></symbol><pattern id="pat_tankTop" patternUnits="userSpaceOnUse" patternContentUnits="userSpaceOnUse" x="0" y="0" width="420" height="420"><rect x="0" y="0" width="420" height="420" fill="#e6e6e6"/><use xlink:href="#s0" transform="translate(230 402) rotate(-5) scale(1)"/><use xlink:href="#s1" transform="translate(151 391) rotate(6) scale(1)"/><use xlink:href="#s2" transform="translate(200 375) rotate(-0) scale(1)"/><use xlink:href="#s3" transform="translate(238 366) rotate(4) scale(1)"/><use xlink:href="#s4" transform="translate(152 315) rotate(9) scale(1)"/><use xlink:href="#s3" transform="translate(156 354) rotate(0) scale(1)"/><use xlink:href="#s5" transform="translate(233 318) rotate(14) scale(1)"/><use xlink:href="#s6" transform="translate(185 407) rotate(-6) scale(1)"/><use xlink:href="#s7" transform="translate(199 317) rotate(-9) scale(1)"/></pattern></defs><path d="M128.2,401.31c.89-8.3,2.12-14.2,3.62-21.48,2.43-11.77,3.69-17.92,6.76-25.21.91-2.17,2.33-5.25,4.7-10.42,2.32-5.05,3.21-6.85,4.34-8.91,1.8-3.26,3.34-5.55,4.7-7.58,4.07-6.06,7.64-10.21,10.12-13.08,2.61-3.02,3.96-4.58,6.14-6.44.78-.67,1.53-1.26,2.24-1.8.53-.39,1.67-1.22,4.8-3.13,2.84-1.72,2.76-1.56,4.11-2.46,2.72-1.81,3.29-2.62,3.6-2.43.84.5-3.38,6.34-5.71,14.93-.43,1.56-1.49,5.81-2.35,9.47-.62,2.6-1.28,5.58-1.99,8.91-1.28,6.05-1.93,9.07-2.35,12.13-.65,4.68-1.08,7.72-.72,11.94.28,3.33.84,9.12,4.59,11.5,0,0,.19.14.4.24,1.86.88,7.74.99,34.3-18.38,24.88-18.15,34.26-25.86,34.33-25.92h0c6.42-4.64,23.54-16.85,25.02-15.34.09.09.72.86,1.23,1.5.4.5.75.96,1.42,1.84.37.48.67.88,1.09,1.44.49.65.89,1.19,1.66,2.24.99,1.34,1.04,1.42,1.34,1.8.47.61.63.77,1.04,1.31.75.98,1.11,1.47,1.12,1.7.06.99-1.56,1.58-3.58,3.02-1.27.9-2.03,1.67-3.27,2.91-3.22,3.22-5.31,6.82-7.04,10.28h0c-8.15,15.2-10.91,28.08-10.91,28.08-1.96,6.42-3.02,14.28-1.9,28.84.54,7.14,1.68,16.42,4.12,27.18h-127.98c0-4.84.22-11.23,1.02-18.68l.04-.03Z" fill="url(#pat_tankTop)"/><path d="M128.2,401.31c.89-8.3,2.12-14.2,3.62-21.48,2.43-11.77,3.69-17.92,6.76-25.21.91-2.17,2.33-5.25,4.7-10.42,2.32-5.05,3.21-6.85,4.34-8.91,1.8-3.26,3.34-5.55,4.7-7.58,4.07-6.06,7.64-10.21,10.12-13.08,2.61-3.02,3.96-4.58,6.14-6.44.78-.67,1.53-1.26,2.24-1.8.53-.39,1.67-1.22,4.8-3.13,2.84-1.72,2.76-1.56,4.11-2.46,2.72-1.81,3.29-2.62,3.6-2.43.84.5-3.38,6.34-5.71,14.93-.43,1.56-1.49,5.81-2.35,9.47-.62,2.6-1.28,5.58-1.99,8.91-1.28,6.05-1.93,9.07-2.35,12.13-.65,4.68-1.08,7.72-.72,11.94.28,3.33.84,9.12,4.59,11.5,0,0,.19.14.4.24,1.86.88,7.74.99,34.3-18.38,24.88-18.15,34.26-25.86,34.33-25.92h0c6.42-4.64,23.54-16.85,25.02-15.34.09.09.72.86,1.23,1.5.4.5.75.96,1.42,1.84.37.48.67.88,1.09,1.44.49.65.89,1.19,1.66,2.24.99,1.34,1.04,1.42,1.34,1.8.47.61.63.77,1.04,1.31.75.98,1.11,1.47,1.12,1.7.06.99-1.56,1.58-3.58,3.02-1.27.9-2.03,1.67-3.27,2.91-3.22,3.22-5.31,6.82-7.04,10.28h0c-8.15,15.2-10.91,28.08-10.91,28.08-1.96,6.42-3.02,14.28-1.9,28.84.54,7.14,1.68,16.42,4.12,27.18h-127.98c0-4.84.22-11.23,1.02-18.68l.04-.03Z" fill="none" stroke="#000" stroke-opacity="0.25" stroke-width="1"/></svg>