<?xml version="1.0" encoding="UTF-8"?><svg xmlns="http://www.w3.org/2000/svg" width="420" height="420" viewBox="0 0 420 420"><defs><pattern id="pat_turtleTop" patternUnits="userSpaceOnUse" patternContentUnits="userSpaceOnUse" x="0" y="0" width="420" height="420"><rect x="0" y="0" width="420" height="420" fill="#ffcc00"/><g transform="rotate(-66 210 210)"><rect x="44" y="-294" width="15" height="1008" fill="#23c55e"/><rect x="61" y="278" width="6" height="141" fill="#f97316"/><rect x="68" y="278" width="11" height="117" fill="#f43f5e"/><rect x="81" y="265" width="5" height="148" fill="#111111"/><rect x="87" y="-294" width="6" height="1008" fill="#111111"/><rect x="94" y="-294" width="5" height="1008" fill="#06b6d4"/><rect x="99" y="-294" width="12" height="1008" fill="#0ea5e9"/><rect x="113" y="-294" width="5" height="1008" fill="#00d18f"/><rect x="119" y="-294" width="15" height="1008" fill="#ffcc00"/><rect x="134" y="-294" width="6" height="1008" fill="#23c55e"/><rect x="141" y="-294" width="15" height="1008" fill="#f97316"/><rect x="157" y="271" width="16" height="152" fill="#23c55e"/><rect x="174" y="257" width="6" height="132" fill="#f97316"/><rect x="182" y="233" width="8" height="109" fill="#0ea5e9"/><rect x="190" y="-294" width="11" height="1008" fill="#00d18f"/><rect x="201" y="302" width="15" height="130" fill="#ffcc00"/><rect x="217" y="-294" width="6" height="1008" fill="#23c55e"/><rect x="223" y="240" width="8" height="160" fill="#f43f5e"/><rect x="232" y="-294" width="13" height="1008" fill="#0ea5e9"/><rect x="246" y="-294" width="9" height="1008" fill="#111111"/><rect x="256" y="-294" width="11" height="1008" fill="#06b6d4"/><rect x="268" y="266" width="8" height="170" fill="#ff5fa2"/><rect x="268" y="265" width="8" height="79" fill="#ff5fa2"/><rect x="278" y="-294" width="15" height="1008" fill="#0ea5e9"/><rect x="294" y="-294" width="9" height="1008" fill="#00d18f"/><rect x="303" y="-294" width="6" height="1008" fill="#06b6d4"/><rect x="310" y="-294" width="5" height="1008" fill="#0ea5e9"/><rect x="316" y="-294" width="11" height="1008" fill="#00d18f"/><rect x="328" y="-294" width="10" height="1008" fill="#ffcc00"/><rect x="340" y="262" width="13" height="115" fill="#23c55e"/><rect x="352" y="-294" width="4" height="1008" fill="#f97316"/><rect x="356" y="-294" width="16" height="1008" fill="#f43f5e"/><rect x="372" y="231" width="6" height="182" fill="#ffcc00"/><rect x="379" y="-294" width="15" height="1008" fill="#23c55e"/></g></pattern></defs><path d="M110.06,419.74c.45-7.64,1.08-14.31,1.69-19.8.18-1.61.83-7.35,1.95-14.79.68-4.52,1.02-6.79,1.56-9.34,1.39-6.57,3.45-13.33,3.45-13.33h0c1.87-4.69,3.3-8.27,5.87-12.99,2.51-4.6,4.72-7.76,5.45-8.77,1.62-2.28,3.03-3.99,4.53-5.83,2.25-2.75,3.42-4.18,5.26-6.01,1.26-1.27,1.03-.91,5.32-4.85,2.5-2.3,2.7-2.52,4.34-3.99,2.18-1.95,3.28-2.93,4.87-4.17,1.81-1.43,2.11-1.5,4.82-3.59,1.53-1.17,1.86-1.47,3.4-2.67.14-.11,3.2-2.5,6.05-4.54,3.63-2.61,3.92-2.48,7.8-5.15,4.07-2.79,6.09-4.18,7.59-5.81,1.47-1.6,4.21-4.57,4.96-8.86.06-.38-.02.03-.01-6.7,0-3.07.03-4.39-.08-6.54-.06-1.2-.18-2.91-.22-3.48-.05-.7-.06-.95-.25-3.49-.23-3.19-.27-3.72-.32-4.42-.09-1.36-.15-2.46-.18-3.15,1.47-.47,3.56-1.09,6.1-1.7,3.56-.84,6.23-1.23,10.57-1.87,4.75-.69,7.12-1.03,9.73-1.15,2.7-.12,5.01.03,9.52.33,8.23.56,12.62.86,18.41,2.21,1.37.32,3.74.91,6.64,1.85,3.04.98,5.49,1.79,8.54,3.41,1.72.91,3.04,1.63,4.37,2.68.98.77,1.72,1.49,2.22,2.02-.18,3.22-.38,6.03-.58,8.34-.19,2.37-.31,3.81-.53,5.83-.12,1.1-.23,2.03-.39,3.67-.16,1.59-.12,1.55-.29,3.36-.3,3.28-.41,3.69-.39,4.92,0,0,.02,1.55.31,3.15.58,3.22,2.29,6.45,2.29,6.45,1.06,2,2.31,3.5,4.8,6.49,1.75,2.1,1.79,1.98,4.54,5.19,2.07,2.42,3.11,3.63,4.28,5.19,2.01,2.68,1.92,2.99,3.63,5.19,1.82,2.34,2.3,2.47,4.41,4.93,1.47,1.72,2.73,3.5,5.19,7,2.31,3.29,3.49,4.98,4.93,7.26,1.68,2.68,2.76,4.66,5.71,10.25,3.78,7.18,5.68,10.77,5.97,11.42,3.68,8.14,4.97,15.14,5.71,19.33.8,4.54,1.06,9.57,1.56,19.46.35,7.11.54,12.97.65,16.98-65.68.03-131.36.06-197.04.09h-8.69Z" fill="url(#pat_turtleTop)"/><path d="M110.06,419.74c.45-7.64,1.08-14.31,1.69-19.8.18-1.61.83-7.35,1.95-14.79.68-4.52,1.02-6.79,1.56-9.34,1.39-6.57,3.45-13.33,3.45-13.33h0c1.87-4.69,3.3-8.27,5.87-12.99,2.51-4.6,4.72-7.76,5.45-8.77,1.62-2.28,3.03-3.99,4.53-5.83,2.25-2.75,3.42-4.18,5.26-6.01,1.26-1.27,1.03-.91,5.32-4.85,2.5-2.3,2.7-2.52,4.34-3.99,2.18-1.95,3.28-2.93,4.87-4.17,1.81-1.43,2.11-1.5,4.82-3.59,1.53-1.17,1.86-1.47,3.4-2.67.14-.11,3.2-2.5,6.05-4.54,3.63-2.61,3.92-2.48,7.8-5.15,4.07-2.79,6.09-4.18,7.59-5.81,1.47-1.6,4.21-4.57,4.96-8.86.06-.38-.02.03-.01-6.7,0-3.07.03-4.39-.08-6.54-.06-1.2-.18-2.91-.22-3.48-.05-.7-.06-.95-.25-3.49-.23-3.19-.27-3.72-.32-4.42-.09-1.36-.15-2.46-.18-3.15,1.47-.47,3.56-1.09,6.1-1.7,3.56-.84,6.23-1.23,10.57-1.87,4.75-.69,7.12-1.03,9.73-1.15,2.7-.12,5.01.03,9.52.33,8.23.56,12.62.86,18.41,2.21,1.37.32,3.74.91,6.64,1.85,3.04.98,5.49,1.79,8.54,3.41,1.72.91,3.04,1.63,4.37,2.68.98.77,1.72,1.49,2.22,2.02-.18,3.22-.38,6.03-.58,8.34-.19,2.37-.31,3.81-.53,5.83-.12,1.1-.23,2.03-.39,3.67-.16,1.59-.12,1.55-.29,3.36-.3,3.28-.41,3.69-.39,4.92,0,0,.02,1.55.31,3.15.58,3.22,2.29,6.45,2.29,6.45,1.06,2,2.31,3.5,4.8,6.49,1.75,2.1,1.79,1.98,4.54,5.19,2.07,2.42,3.11,3.63,4.28,5.19,2.01,2.68,1.92,2.99,3.63,5.19,1.82,2.34,2.3,2.47,4.41,4.93,1.47,1.72,2.73,3.5,5.19,7,2.31,3.29,3.49,4.98,4.93,7.26,1.68,2.68,2.76,4.66,5.71,10.25,3.78,7.18,5.68,10.77,5.97,11.42,3.68,8.14,4.97,15.14,5.71,19.33.8,4.54,1.06,9.57,1.56,19.46.35,7.11.54,12.97.65,16.98-65.68.03-131.36.06-197.04.09h-8.69Z" fill="none" stroke="#000" stroke-opacity="0.25" stroke-width="1"/></svg>