<svg xmlns="http://www.w3.org/2000/svg" viewBox="0 0 420 420"><defs><pattern id="a" width="420" height="420" x="0" y="0" patternContentUnits="userSpaceOnUse" patternUnits="userSpaceOnUse"><path fill="#111" d="M0 0h420v420H0z"/><path fill="#111" d="m-160.14-170.22 11.68-5.7 441.88 905.98-11.68 5.7z"/><path fill="#a855f7" d="m-10.32 102.73 8.98-4.39 183.24 375.7-8.98 4.38z"/><path fill="#ff6a00" d="m-137.67-181.18 12.58-6.14L316.8 718.67l-12.58 6.13z"/><path fill="#111" d="m-125.09-187.32 14.38-7.01 441.88 905.98-14.38 7.02z"/><path fill="#ff6a00" d="m37.49 107.22 12.58-6.13 169.21 346.93-12.58 6.14zm5.17-25.89 10.79-5.26 181.92 373-10.79 5.26z"/><path fill="#ff6a00" d="m52.74 102 10.79-5.25 129.76 266.04-10.79 5.26z"/><path fill="#111" d="m-83.74-207.48 8.09-3.95 441.88 905.99-8.1 3.94zm8.99-4.39 11.68-5.7 441.88 905.99-11.69 5.7z"/><path fill="#a855f7" d="m-62.17-218 5.4-2.63L385.1 685.35l-5.4 2.63z"/><path fill="#ff6a00" d="m-55.88-221.07 9.89-4.83 441.88 906-9.89 4.82z"/><path fill="#111" d="m89.93 50.5 7.18-3.51L283 428.08l-7.2 3.5z"/><path fill="#a855f7" d="m-37.9-229.84 10.78-5.26 441.88 905.98-10.79 5.26z"/><path fill="#ff6a00" d="m-26.22-235.54 6.3-3.07 441.87 905.99-6.29 3.06z"/><path fill="#111" d="m-19.03-239.05 12.59-6.13L435.43 660.8l-12.58 6.14z"/><path fill="#a855f7" d="m-5.55-245.62 8.1-3.95 441.87 905.99-8.09 3.94z"/><path fill="#ff6a00" d="m2.54-249.57 9-4.38L453.4 652.03l-8.99 4.39z"/><path fill="#111" d="m14.23-255.27 4.5-2.19L460.6 648.53l-4.5 2.19z"/><path fill="#a855f7" d="m18.72-257.46 9.89-4.82L470.49 643.7l-9.9 4.83zm11.69-5.7 13.48-6.57 441.88 905.98-13.49 6.58z"/><path fill="#ff6a00" d="m45.69-270.61 12.58-6.14 441.88 905.99-12.59 6.14z"/><path fill="#111" d="m59.17-277.18 9.88-4.83 441.88 905.99-9.88 4.82z"/><path fill="#a855f7" d="m69.95-282.45 7.2-3.5 441.87 905.98-7.19 3.5z"/><path fill="#ff6a00" d="m78.04-286.39 13.48-6.58L533.4 613.02l-13.48 6.57z"/><path fill="#111" d="m92.42-293.4 14.38-7.02 441.88 905.99-14.38 7.01zM252.34-2.02l8.1-3.94 108.7 222.9-8.08 3.94z"/><path fill="#a855f7" d="m115.79-304.8 12.58-6.14 441.88 905.99-12.58 6.13z"/><path fill="#ff6a00" d="m128.37-310.94 5.4-2.63 441.88 905.98-5.4 2.63z"/><path fill="#111" d="m133.77-313.57 13.48-6.58 441.88 905.99-13.49 6.58z"/><path fill="#a855f7" d="m149.05-321.02 10.78-5.26L601.71 579.7l-10.79 5.26z"/></pattern></defs><path fill="url(#a)" d="M111.26 419.63c-.87-16.12.21-44.19 16.19-68.95 11.57-17.93 31.28-34.63 36.3-38.4 4.14-3.11 8.1-6.44 12.32-9.44 2.26-1.6 4.3-3.51 6.53-5.16.62-.46 1.9-1.39 3.18-2.99a15 15 0 0 0 1.74-2.7c.29-.48.65-1.15.98-2.01 0 0 .35-.91.57-1.91.63-2.89.2-7.36.2-7.36-.28-2.88-.49-4.04-.83-6.78-.45-3.62-.5-5.04-.72-7.09-.33-3.05-.92-8.52-2.72-13.13-1.09-2.8-3.5-7.55-9.25-12.2 2.22.02 5.36.43 8.01 2.47 4.21 3.23 4.76 8.66 5.69 17.86.68 6.68.78 16.48 1.03 19.54.08.98.1 1.46.15 2.44.05 1.07.07 1.7.06 2.37q-.01.91-.04 1.46a8 8 0 0 1-.56 2.01 6 6 0 0 0-.67 2.74l.11 1.78c.02.46.12 2.53.1 5.42q0 2.42-.19 5.77a38 38 0 0 1-1.73 12.39c-1.94 6.34-4.66 10.36-7.25 17.18-.37.99-1.04 3.07-.78 5.69.12 1.18.21 2.53.78 2.7 1.26.37 3.9-5.43 6.34-10.43 5.29-10.86 5.72-9.97 9.8-18.4 1.57-3.25 8.43-17.68 15.4-41.2 5.92-19.97 8.6-35.31 11.05-49.3.7-4.02 2.49-17.21 6.05-43.6 7.36-54.48.22-7.06 3.2-31.7.06-.52.97-8 .4-17.7-.32-5.52-.95-8.75-2.2-12a32 32 0 0 0-5.4-9.1 20 20 0 0 0-6.6-4.6c-1.81-.76-1.68-.35-6.8-1.8-3.64-1.03-4.81-1.54-7.35-1.91a30 30 0 0 0-4.46-.31c-4.7-1.56-10.54-.37-14.95-.33a7 7 0 0 0-3.24-1.35c-1.85-.21-2.83.56-4.77 1.12-2.64.76-3.35.04-7.69.19-1.64.05-3.99.24-6.84.83-.56.29-1.32.78-1.85 1.63-.7 1.13-.55 2.18-1.19 2.45-.28.12-.77.11-1.66-.58q-.62-.25-1.09-.5c-1.29-.67-1.89-1.15-2.65-1.62-.77-.47-2.02-1.25-3.54-1.38a6 6 0 0 0-3.63.91c-.52.23-1.23.64-1.84 1.34-.97 1.12-1.11 2.33-1.38 2.29-.29-.04-.32-1.35-.35-2.33-.03-1 .02-1.42.07-2.86.05-1.57-.03-1.57.08-3.4q.06-1.02.07-1.94c.04-1.4.07-1.73.07-1.94.08-2.13-.04-3.29-.02-4.41.03-1.22.24-2.96 1.1-5.1a200 200 0 0 1 5.9-12.1c4.42-8.9 8.74-14 18.04-19.25 2.88-1.62 4.36-2.75 5.78-3.48a56 56 0 0 1 7.31-3.05c3.34-1.19 5.94-1.86 8.87-2.62 2.91-.76 5.27-1.27 6.44-1.53 1.93-.42 3.54-.74 5.76-1.17 1.92-.38 3.53-.68 4.7-.9l5.49-.9c3.83-.3 7.09-.4 9.6-.43 3.68-.05 6.68-.09 10.71.29 3.02.29 5.34.69 8.1 1.17 3.16.55 5.82 1.11 7.78 1.56a112 112 0 0 1 24.38 8.02 135 135 0 0 1 18.13 10 108 108 0 0 1 20.4 25.86 72 72 0 0 1 6.7 14.59 68 68 0 0 1 4 16.15c.98 3.79 1.6 7.06 2 9.6.08.53.4 2.56.7 5.3.34 3.15.51 5.87.6 8a156 156 0 0 1 .9 24.9c-.05 1.52-.22 6.59-.9 14.4-.64 7.39-1.57 17.76-3.96 29.69-.31 1.55-1.14 5.57-2.44 10.71-.91 3.62-1.52 6.01-2.54 9.1a90 90 0 0 1-4.28 10.6 301 301 0 0 1-8.48 17.2 188 188 0 0 1-9 11.69c-5.03 6.04-7.74 9.29-12.1 12.91-1.71 1.42-5.05 4.03-7.3 5.8l-5.36 4.16c-6.71 5.65-11.12 3.94-5.58 12.19 14.74 17.18 27.64 36.35 40.18 53.56 12.54 18.87 13.55 41.79 12.09 63.31l-205.97.01Z"/><path fill="none" stroke="#000" stroke-opacity=".25" d="M111.26 419.63c-.87-16.12.21-44.19 16.19-68.95 11.57-17.93 31.28-34.63 36.3-38.4 4.14-3.11 8.1-6.44 12.32-9.44 2.26-1.6 4.3-3.51 6.53-5.16.62-.46 1.9-1.39 3.18-2.99a15 15 0 0 0 1.74-2.7c.29-.48.65-1.15.98-2.01 0 0 .35-.91.57-1.91.63-2.89.2-7.36.2-7.36-.28-2.88-.49-4.04-.83-6.78-.45-3.62-.5-5.04-.72-7.09-.33-3.05-.92-8.52-2.72-13.13-1.09-2.8-3.5-7.55-9.25-12.2 2.22.02 5.36.43 8.01 2.47 4.21 3.23 4.76 8.66 5.69 17.86.68 6.68.78 16.48 1.03 19.54.08.98.1 1.46.15 2.44.05 1.07.07 1.7.06 2.37q-.01.91-.04 1.46a8 8 0 0 1-.56 2.01 6 6 0 0 0-.67 2.74l.11 1.78c.02.46.12 2.53.1 5.42q0 2.42-.19 5.77a38 38 0 0 1-1.73 12.39c-1.94 6.34-4.66 10.36-7.25 17.18-.37.99-1.04 3.07-.78 5.69.12 1.18.21 2.53.78 2.7 1.26.37 3.9-5.43 6.34-10.43 5.29-10.86 5.72-9.97 9.8-18.4 1.57-3.25 8.43-17.68 15.4-41.2 5.92-19.97 8.6-35.31 11.05-49.3.7-4.02 2.49-17.21 6.05-43.6 7.36-54.48.22-7.06 3.2-31.7.06-.52.97-8 .4-17.7-.32-5.52-.95-8.75-2.2-12a32 32 0 0 0-5.4-9.1 20 20 0 0 0-6.6-4.6c-1.81-.76-1.68-.35-6.8-1.8-3.64-1.03-4.81-1.54-7.35-1.91a30 30 0 0 0-4.46-.31c-4.7-1.56-10.54-.37-14.95-.33a7 7 0 0 0-3.24-1.35c-1.85-.21-2.83.56-4.77 1.12-2.64.76-3.35.04-7.69.19-1.64.05-3.99.24-6.84.83-.56.29-1.32.78-1.85 1.63-.7 1.13-.55 2.18-1.19 2.45-.28.12-.77.11-1.66-.58q-.62-.25-1.09-.5c-1.29-.67-1.89-1.15-2.65-1.62-.77-.47-2.02-1.25-3.54-1.38a6 6 0 0 0-3.63.91c-.52.23-1.23.64-1.84 1.34-.97 1.12-1.11 2.33-1.38 2.29-.29-.04-.32-1.35-.35-2.33-.03-1 .02-1.42.07-2.86.05-1.57-.03-1.57.08-3.4q.06-1.02.07-1.94c.04-1.4.07-1.73.07-1.94.08-2.13-.04-3.29-.02-4.41.03-1.22.24-2.96 1.1-5.1a200 200 0 0 1 5.9-12.1c4.42-8.9 8.74-14 18.04-19.25 2.88-1.62 4.36-2.75 5.78-3.48a56 56 0 0 1 7.31-3.05c3.34-1.19 5.94-1.86 8.87-2.62 2.91-.76 5.27-1.27 6.44-1.53 1.93-.42 3.54-.74 5.76-1.17 1.92-.38 3.53-.68 4.7-.9l5.49-.9c3.83-.3 7.09-.4 9.6-.43 3.68-.05 6.68-.09 10.71.29 3.02.29 5.34.69 8.1 1.17 3.16.55 5.82 1.11 7.78 1.56a112 112 0 0 1 24.38 8.02 135 135 0 0 1 18.13 10 108 108 0 0 1 20.4 25.86 72 72 0 0 1 6.7 14.59 68 68 0 0 1 4 16.15c.98 3.79 1.6 7.06 2 9.6.08.53.4 2.56.7 5.3.34 3.15.51 5.87.6 8a156 156 0 0 1 .9 24.9c-.05 1.52-.22 6.59-.9 14.4-.64 7.39-1.57 17.76-3.96 29.69-.31 1.55-1.14 5.57-2.44 10.71-.91 3.62-1.52 6.01-2.54 9.1a90 90 0 0 1-4.28 10.6 301 301 0 0 1-8.48 17.2 188 188 0 0 1-9 11.69c-5.03 6.04-7.74 9.29-12.1 12.91-1.71 1.42-5.05 4.03-7.3 5.8l-5.36 4.16c-6.71 5.65-11.12 3.94-5.58 12.19 14.74 17.18 27.64 36.35 40.18 53.56 12.54 18.87 13.55 41.79 12.09 63.31l-205.97.01Z"/></svg>