<svg xmlns="http://www.w3.org/2000/svg" xmlns:xlink="http://www.w3.org/1999/xlink" viewBox="0 0 420 420"><defs><symbol id="a" overflow="visible"><text fill-opacity=".9" dominant-baseline="middle" font-family="Arial" font-size="12" text-anchor="middle">($_$)</text></symbol><symbol id="b" overflow="visible"><text fill-opacity=".6" dominant-baseline="middle" font-family="Arial" font-size="12" text-anchor="middle">:-P</text></symbol><symbol id="c" overflow="visible"><text fill-opacity=".45" dominant-baseline="middle" font-family="Arial" font-size="12" text-anchor="middle">(..)</text></symbol><symbol id="d" overflow="visible"><text fill-opacity=".45" dominant-baseline="middle" font-family="Arial" font-size="12" text-anchor="middle">&lt;3</text></symbol><symbol id="e" overflow="visible"><text fill-opacity=".45" dominant-baseline="middle" font-family="Arial" font-size="12" text-anchor="middle">;-)</text></symbol><symbol id="f" overflow="visible"><text fill-opacity=".75" dominant-baseline="middle" font-family="Arial" font-size="12" text-anchor="middle">(T_T)</text></symbol><symbol id="g" overflow="visible"><text fill-opacity=".45" dominant-baseline="middle" font-family="Arial" font-size="12" text-anchor="middle">(--)</text></symbol><symbol id="h" overflow="visible"><text fill-opacity=".9" dominant-baseline="middle" font-family="Arial" font-size="12" text-anchor="middle">8-)</text></symbol><symbol id="i" overflow="visible"><text dominant-baseline="middle" font-family="Arial" font-size="12" text-anchor="middle">XD</text></symbol><symbol id="j" overflow="visible"><text fill-opacity=".6" dominant-baseline="middle" font-family="Arial" font-size="12" text-anchor="middle">XD</text></symbol><symbol id="k" overflow="visible"><text fill-opacity=".9" dominant-baseline="middle" font-family="Arial" font-size="12" text-anchor="middle">XD</text></symbol><symbol id="l" overflow="visible"><text dominant-baseline="middle" font-family="Arial" font-size="12" text-anchor="middle">(x_x)</text></symbol><symbol id="m" overflow="visible"><text fill-opacity=".6" dominant-baseline="middle" font-family="Arial" font-size="12" text-anchor="middle">8-)</text></symbol><symbol id="n" overflow="visible"><text fill-opacity=".75" dominant-baseline="middle" font-family="Arial" font-size="12" text-anchor="middle">(--)</text></symbol><symbol id="o" overflow="visible"><text fill-opacity=".6" dominant-baseline="middle" font-family="Arial" font-size="12" text-anchor="middle">(T_T)</text></symbol><symbol id="p" overflow="visible"><text fill-opacity=".6" dominant-baseline="middle" font-family="Arial" font-size="12" text-anchor="middle">($_$)</text></symbol><symbol id="q" overflow="visible"><text dominant-baseline="middle" font-family="Arial" font-size="12" text-anchor="middle">:/</text></symbol><symbol id="r" overflow="visible"><text fill-opacity=".6" dominant-baseline="middle" font-family="Arial" font-size="12" text-anchor="middle">^^</text></symbol><symbol id="s" overflow="visible"><text fill-opacity=".75" dominant-baseline="middle" font-family="Arial" font-size="12" text-anchor="middle">&lt;3</text></symbol><symbol id="t" overflow="visible"><text fill-opacity=".6" dominant-baseline="middle" font-family="Arial" font-size="12" text-anchor="middle">:-O</text></symbol><pattern id="u" width="420" height="420" x="0" y="0" patternContentUnits="userSpaceOnUse" patternUnits="userSpaceOnUse"><path fill="#7c4dff" d="M0 0h420v420H0z"/><use xlink:href="#a" transform="rotate(11 -396.848 1484.685)"/><use xlink:href="#b" transform="rotate(12 -654.95 1410.754)"/><use xlink:href="#c" transform="rotate(14 -285.712 803.924)"/><use xlink:href="#d" transform="rotate(6 -794.854 2175.047)"/><use xlink:href="#e" transform="rotate(-12 1273.98 -1092.581)"/><use xlink:href="#f" transform="rotate(13 -1495.84 917.259)"/><use xlink:href="#g" transform="rotate(-3 6989.328 -4956.848)"/><use xlink:href="#h" transform="rotate(-7 3070.824 -1642.009)"/><use xlink:href="#i" transform="rotate(-12 389.902 -1147.024)"/><use xlink:href="#j" transform="rotate(2 -11557.862 4327.877)"/><use xlink:href="#k" transform="rotate(12 -1765.644 1642.926)"/><use xlink:href="#l" transform="rotate(7 -3206.67 1771.586)"/><use xlink:href="#i" transform="rotate(-8 488.618 -1438.818)"/><use xlink:href="#m" transform="rotate(1 -13143.783 17132.415)"/><use xlink:href="#n" transform="rotate(14 -1507.014 1259.765)"/><use xlink:href="#o" transform="rotate(-1 17594.77 -13598.138)"/><use xlink:href="#k" transform="rotate(-1 4712.84 -8209.883)"/><use xlink:href="#p" transform="translate(140 278)"/><use xlink:href="#d" transform="rotate(-7 2763.526 -1447.46)"/><use xlink:href="#q" transform="rotate(6 -2386.129 2296.709)"/><use xlink:href="#k" transform="rotate(5 -2231.588 3023.23)"/><use xlink:href="#r" transform="rotate(2 -4949.662 6991.94)"/><use xlink:href="#s" transform="rotate(7 -1038.84 2065.682)"/><use xlink:href="#t" transform="rotate(4 -1734.993 4504.62)"/><use xlink:href="#j" transform="rotate(4 -759.27 2477.9)"/><use xlink:href="#e" transform="rotate(3 -3625.157 6037.305)"/></pattern></defs><path fill="url(#u)" d="M111.26 419.63c-.87-16.12.21-44.19 16.19-68.95 11.57-17.93 31.28-34.63 36.3-38.4 4.14-3.11 8.1-6.44 12.32-9.44 2.26-1.6 4.3-3.51 6.53-5.16.62-.46 1.9-1.39 3.18-2.99a15 15 0 0 0 1.74-2.7c.29-.48.65-1.15.98-2.01 0 0 .35-.91.57-1.91.63-2.89.2-7.36.2-7.36-.28-2.88-.49-4.04-.83-6.78-.45-3.62-.5-5.04-.72-7.09-.33-3.05-.92-8.52-2.72-13.13-1.09-2.8-3.5-7.55-9.25-12.2 2.22.02 5.36.43 8.01 2.47 4.21 3.23 4.76 8.66 5.69 17.86.68 6.68.78 16.48 1.03 19.54.08.98.1 1.46.15 2.44.05 1.07.07 1.7.06 2.37q-.01.91-.04 1.46a8 8 0 0 1-.56 2.01 6 6 0 0 0-.67 2.74l.11 1.78c.02.46.12 2.53.1 5.42q0 2.42-.19 5.77a38 38 0 0 1-1.73 12.39c-1.94 6.34-4.66 10.36-7.25 17.18-.37.99-1.04 3.07-.78 5.69.12 1.18.21 2.53.78 2.7 1.26.37 3.9-5.43 6.34-10.43 5.29-10.86 5.72-9.97 9.8-18.4 1.57-3.25 8.43-17.68 15.4-41.2 5.92-19.97 8.6-35.31 11.05-49.3.7-4.02 2.49-17.21 6.05-43.6 7.36-54.48.22-7.06 3.2-31.7.06-.52.97-8 .4-17.7-.32-5.52-.95-8.75-2.2-12a32 32 0 0 0-5.4-9.1 20 20 0 0 0-6.6-4.6c-1.81-.76-1.68-.35-6.8-1.8-3.64-1.03-4.81-1.54-7.35-1.91a30 30 0 0 0-4.46-.31c-4.7-1.56-10.54-.37-14.95-.33a7 7 0 0 0-3.24-1.35c-1.85-.21-2.83.56-4.77 1.12-2.64.76-3.35.04-7.69.19-1.64.05-3.99.24-6.84.83-.56.29-1.32.78-1.85 1.63-.7 1.13-.55 2.18-1.19 2.45-.28.12-.77.11-1.66-.58q-.62-.25-1.09-.5c-1.29-.67-1.89-1.15-2.65-1.62-.77-.47-2.02-1.25-3.54-1.38a6 6 0 0 0-3.63.91c-.52.23-1.23.64-1.84 1.34-.97 1.12-1.11 2.33-1.38 2.29-.29-.04-.32-1.35-.35-2.33-.03-1 .02-1.42.07-2.86.05-1.57-.03-1.57.08-3.4q.06-1.02.07-1.94c.04-1.4.07-1.73.07-1.94.08-2.13-.04-3.29-.02-4.41.03-1.22.24-2.96 1.1-5.1a200 200 0 0 1 5.9-12.1c4.42-8.9 8.74-14 18.04-19.25 2.88-1.62 4.36-2.75 5.78-3.48a56 56 0 0 1 7.31-3.05c3.34-1.19 5.94-1.86 8.87-2.62 2.91-.76 5.27-1.27 6.44-1.53 1.93-.42 3.54-.74 5.76-1.17 1.92-.38 3.53-.68 4.7-.9l5.49-.9c3.83-.3 7.09-.4 9.6-.43 3.68-.05 6.68-.09 10.71.29 3.02.29 5.34.69 8.1 1.17 3.16.55 5.82 1.11 7.78 1.56a112 112 0 0 1 24.38 8.02 135 135 0 0 1 18.13 10 108 108 0 0 1 20.4 25.86 72 72 0 0 1 6.7 14.59 68 68 0 0 1 4 16.15c.98 3.79 1.6 7.06 2 9.6.08.53.4 2.56.7 5.3.34 3.15.51 5.87.6 8a156 156 0 0 1 .9 24.9c-.05 1.52-.22 6.59-.9 14.4-.64 7.39-1.57 17.76-3.96 29.69-.31 1.55-1.14 5.57-2.44 10.71-.91 3.62-1.52 6.01-2.54 9.1a90 90 0 0 1-4.28 10.6 301 301 0 0 1-8.48 17.2 188 188 0 0 1-9 11.69c-5.03 6.04-7.74 9.29-12.1 12.91-1.71 1.42-5.05 4.03-7.3 5.8l-5.36 4.16c-6.71 5.65-11.12 3.94-5.58 12.19 14.74 17.18 27.64 36.35 40.18 53.56 12.54 18.87 13.55 41.79 12.09 63.31l-205.97.01Z"/><path fill="none" stroke="#000" stroke-opacity=".25" d="M111.26 419.63c-.87-16.12.21-44.19 16.19-68.95 11.57-17.93 31.28-34.63 36.3-38.4 4.14-3.11 8.1-6.44 12.32-9.44 2.26-1.6 4.3-3.51 6.53-5.16.62-.46 1.9-1.39 3.18-2.99a15 15 0 0 0 1.74-2.7c.29-.48.65-1.15.98-2.01 0 0 .35-.91.57-1.91.63-2.89.2-7.36.2-7.36-.28-2.88-.49-4.04-.83-6.78-.45-3.62-.5-5.04-.72-7.09-.33-3.05-.92-8.52-2.72-13.13-1.09-2.8-3.5-7.55-9.25-12.2 2.22.02 5.36.43 8.01 2.47 4.21 3.23 4.76 8.66 5.69 17.86.68 6.68.78 16.48 1.03 19.54.08.98.1 1.46.15 2.44.05 1.07.07 1.7.06 2.37q-.01.91-.04 1.46a8 8 0 0 1-.56 2.01 6 6 0 0 0-.67 2.74l.11 1.78c.02.46.12 2.53.1 5.42q0 2.42-.19 5.77a38 38 0 0 1-1.73 12.39c-1.94 6.34-4.66 10.36-7.25 17.18-.37.99-1.04 3.07-.78 5.69.12 1.18.21 2.53.78 2.7 1.26.37 3.9-5.43 6.34-10.43 5.29-10.86 5.72-9.97 9.8-18.4 1.57-3.25 8.43-17.68 15.4-41.2 5.92-19.97 8.6-35.31 11.05-49.3.7-4.02 2.49-17.21 6.05-43.6 7.36-54.48.22-7.06 3.2-31.7.06-.52.97-8 .4-17.7-.32-5.52-.95-8.75-2.2-12a32 32 0 0 0-5.4-9.1 20 20 0 0 0-6.6-4.6c-1.81-.76-1.68-.35-6.8-1.8-3.64-1.03-4.81-1.54-7.35-1.91a30 30 0 0 0-4.46-.31c-4.7-1.56-10.54-.37-14.95-.33a7 7 0 0 0-3.24-1.35c-1.85-.21-2.83.56-4.77 1.12-2.64.76-3.35.04-7.69.19-1.64.05-3.99.24-6.84.83-.56.29-1.32.78-1.85 1.63-.7 1.13-.55 2.18-1.19 2.45-.28.12-.77.11-1.66-.58q-.62-.25-1.09-.5c-1.29-.67-1.89-1.15-2.65-1.62-.77-.47-2.02-1.25-3.54-1.38a6 6 0 0 0-3.63.91c-.52.23-1.23.64-1.84 1.34-.97 1.12-1.11 2.33-1.38 2.29-.29-.04-.32-1.35-.35-2.33-.03-1 .02-1.42.07-2.86.05-1.57-.03-1.57.08-3.4q.06-1.02.07-1.94c.04-1.4.07-1.73.07-1.94.08-2.13-.04-3.29-.02-4.41.03-1.22.24-2.96 1.1-5.1a200 200 0 0 1 5.9-12.1c4.42-8.9 8.74-14 18.04-19.25 2.88-1.62 4.36-2.75 5.78-3.48a56 56 0 0 1 7.31-3.05c3.34-1.19 5.94-1.86 8.87-2.62 2.91-.76 5.27-1.27 6.44-1.53 1.93-.42 3.54-.74 5.76-1.17 1.92-.38 3.53-.68 4.7-.9l5.49-.9c3.83-.3 7.09-.4 9.6-.43 3.68-.05 6.68-.09 10.71.29 3.02.29 5.34.69 8.1 1.17 3.16.55 5.82 1.11 7.78 1.56a112 112 0 0 1 24.38 8.02 135 135 0 0 1 18.13 10 108 108 0 0 1 20.4 25.86 72 72 0 0 1 6.7 14.59 68 68 0 0 1 4 16.15c.98 3.79 1.6 7.06 2 9.6.08.53.4 2.56.7 5.3.34 3.15.51 5.87.6 8a156 156 0 0 1 .9 24.9c-.05 1.52-.22 6.59-.9 14.4-.64 7.39-1.57 17.76-3.96 29.69-.31 1.55-1.14 5.57-2.44 10.71-.91 3.62-1.52 6.01-2.54 9.1a90 90 0 0 1-4.28 10.6 301 301 0 0 1-8.48 17.2 188 188 0 0 1-9 11.69c-5.03 6.04-7.74 9.29-12.1 12.91-1.71 1.42-5.05 4.03-7.3 5.8l-5.36 4.16c-6.71 5.65-11.12 3.94-5.58 12.19 14.74 17.18 27.64 36.35 40.18 53.56 12.54 18.87 13.55 41.79 12.09 63.31l-205.97.01Z"/></svg>