<svg xmlns="http://www.w3.org/2000/svg" viewBox="0 0 420 420"><defs><pattern id="a" width="420" height="420" x="0" y="0" patternContentUnits="userSpaceOnUse" patternUnits="userSpaceOnUse"><path fill="#ff3d71" d="M0 0h420v420H0z"/><path fill="#111" d="m-317.24 169.55 1.5-3.71 934.6 377.6-1.5 3.71z"/><path fill="#f43f5e" d="m-315.36 164.91 3-7.42 934.6 377.6-3 7.42z"/><path fill="#f97316" d="m-312 156.57 3-7.42 934.6 377.6-3 7.42z"/><path fill="#ff3d71" d="m-308.25 147.3 4.12-10.2 934.6 377.6-4.11 10.2z"/><path fill="#f43f5e" d="m-303.75 136.17 1.87-4.64 934.6 377.6-1.87 4.64z"/><path fill="#f97316" d="m-301.88 131.53 2.62-6.49 934.6 377.6-2.62 6.5z"/><path fill="#ff3d71" d="m-298.88 124.12 2.25-5.57 934.6 377.6-2.25 5.57z"/><path fill="#14b8a6" d="m-295.88 116.7 5.24-12.98 934.6 377.6-5.24 12.98z"/><path fill="#22c55e" d="m-290.27 102.79 4.87-12.05 934.6 377.6-4.87 12.05z"/><path fill="#111" d="m-285.02 89.81 3-7.42L652.58 460l-3 7.42z"/><path fill="#f43f5e" d="m-282.02 82.4 4.87-12.06 934.6 377.6-4.87 12.06z"/><path fill="#f97316" d="m258.2 285.56 3.75-9.27L376 322.36l-3.74 9.28z"/><path fill="#ff3d71" d="m-272.29 58.29 5.25-12.98 934.6 377.6-5.24 12.98z"/><path fill="#14b8a6" d="m-266.67 44.38 3-7.42 934.6 377.6-3 7.42z"/><path fill="#22c55e" d="m-263.67 36.96 2.25-5.56L673.18 409l-2.25 5.56z"/><path fill="#111" d="m-261.05 30.47 1.5-3.7 934.6 377.6-1.5 3.7z"/><path fill="#f43f5e" d="m-258.8 24.9 2.25-5.56 934.6 377.6-2.25 5.57z"/><path fill="#f97316" d="m-256.18 18.42 1.5-3.71 934.6 377.6-1.5 3.71z"/><path fill="#ff3d71" d="M-253.93 12.85-249.06.8l934.6 377.6-4.87 12.06z"/><path fill="#14b8a6" d="m-248.31-1.05 3.75-9.28 934.6 377.6-3.75 9.28z"/><path fill="#22c55e" d="m-243.81-12.18 5.99-14.83 934.6 377.6-6 14.83z"/><path fill="#111" d="m-237.45-27.94 4.12-10.2 934.6 377.6-4.12 10.2z"/><path fill="#f43f5e" d="m-232.95-39.07 2.25-5.56 934.6 377.6-2.25 5.56z"/><path fill="#f97316" d="m-229.95-46.49 4.12-10.2 934.6 377.6-4.12 10.2z"/><path fill="#ff3d71" d="m-225.46-57.61 5.62-13.91 934.6 377.6-5.62 13.91z"/><path fill="#14b8a6" d="m323.86 147.07 3-7.41 122.39 49.44-3 7.42z"/><path fill="#22c55e" d="m-215.72-81.72 3.75-9.27 934.6 377.6-3.75 9.27z"/><path fill="#111" d="m340.63 132.28 2.62-6.5 121.46 49.08-2.62 6.49z"/><path fill="#f43f5e" d="m-208.98-98.4 3-7.43 934.6 377.6-3 7.42z"/><path fill="#f97316" d="m-205.98-105.83 4.5-11.12 934.6 377.6-4.5 11.13z"/><path fill="#ff3d71" d="m326.83 94.35 4.87-12.06 73.25 29.6-4.87 12.05z"/><path fill="#14b8a6" d="m-195.12-132.71 4.12-10.2 934.6 377.6-4.11 10.2z"/></pattern></defs><path fill="url(#a)" d="M116.67 408.9c.08-1.81.26-5.22.64-9.56.33-3.84.6-6.87 1.2-10.95a161 161 0 0 1 4.51-20.43c.89-3.02 2.47-8.33 5.25-14.76a94 94 0 0 1 9.94-18.19 94 94 0 0 1 8.47-10.21c2.41-2.56 5.66-5.51 12.15-11.41a127 127 0 0 1 8.1-6.96c1.76-1.36 3.36-2.48 6.54-4.73 3.21-2.26 4.81-3.4 6.6-4.53.87-.56 1.83-1.14 3.26-2.12 3-2.07 3.79-2.93 4.1-3.29 1.62-1.88 1.92-3.46 2.13-3.4.53.15-1.62 9.63-4.33 20.22-3.51 13.74-3.73 14.58-4.02 16.53-1.28 8.81-2.38 18.65 1.74 23.14 4.62 5.01 14.39-.48 23.68-5.7a82 82 0 0 0 18.12-14.15c5.44-5.59 10.27-11.95 10.27-11.95a179 179 0 0 1 6.24-8.68 59 59 0 0 1 4.09-5.05c.99-1 7.17-7.26 13.18-6.34 3.17.48 4.17 2.64 14.27 15.75 4.06 5.28 4.78 6.04 5.95 7.54 1.05 1.34 1.78 2.36 1.97 2.61 2.14 2.93 8.7 11.3 10.47 13.6 1.57 2.04 6.56 8.56 10.68 16.7 6.77 13.35 8.43 25.59 9.21 31.74.85 6.75.9 12.24.92 16.7.05 7.62-.41 14.08-.92 18.99H116.39c0-3.98.12-7.69.28-11.1Z"/><path fill="none" stroke="#000" stroke-opacity=".25" d="M116.67 408.9c.08-1.81.26-5.22.64-9.56.33-3.84.6-6.87 1.2-10.95a161 161 0 0 1 4.51-20.43c.89-3.02 2.47-8.33 5.25-14.76a94 94 0 0 1 9.94-18.19 94 94 0 0 1 8.47-10.21c2.41-2.56 5.66-5.51 12.15-11.41a127 127 0 0 1 8.1-6.96c1.76-1.36 3.36-2.48 6.54-4.73 3.21-2.26 4.81-3.4 6.6-4.53.87-.56 1.83-1.14 3.26-2.12 3-2.07 3.79-2.93 4.1-3.29 1.62-1.88 1.92-3.46 2.13-3.4.53.15-1.62 9.63-4.33 20.22-3.51 13.74-3.73 14.58-4.02 16.53-1.28 8.81-2.38 18.65 1.74 23.14 4.62 5.01 14.39-.48 23.68-5.7a82 82 0 0 0 18.12-14.15c5.44-5.59 10.27-11.95 10.27-11.95a179 179 0 0 1 6.24-8.68 59 59 0 0 1 4.09-5.05c.99-1 7.17-7.26 13.18-6.34 3.17.48 4.17 2.64 14.27 15.75 4.06 5.28 4.78 6.04 5.95 7.54 1.05 1.34 1.78 2.36 1.97 2.61 2.14 2.93 8.7 11.3 10.47 13.6 1.57 2.04 6.56 8.56 10.68 16.7 6.77 13.35 8.43 25.59 9.21 31.74.85 6.75.9 12.24.92 16.7.05 7.62-.41 14.08-.92 18.99H116.39c0-3.98.12-7.69.28-11.1Z"/></svg>