<svg xmlns="http://www.w3.org/2000/svg" xmlns:xlink="http://www.w3.org/1999/xlink" viewBox="0 0 420 420"><defs><symbol id="a" overflow="visible"><text fill-opacity=".6" dominant-baseline="middle" font-family="Arial" font-size="12" text-anchor="middle">&lt;3</text></symbol><symbol id="b" overflow="visible"><text dominant-baseline="middle" font-family="Arial" font-size="12" text-anchor="middle">8-)</text></symbol><symbol id="c" overflow="visible"><text dominant-baseline="middle" font-family="Arial" font-size="12" text-anchor="middle">XD</text></symbol><symbol id="d" overflow="visible"><text fill-opacity=".6" dominant-baseline="middle" font-family="Arial" font-size="12" text-anchor="middle">t(--t)</text></symbol><symbol id="e" overflow="visible"><text fill-opacity=".45" dominant-baseline="middle" font-family="Arial" font-size="12" text-anchor="middle">:-)</text></symbol><symbol id="f" overflow="visible"><text fill-opacity=".45" dominant-baseline="middle" font-family="Arial" font-size="12" text-anchor="middle">^^</text></symbol><symbol id="g" overflow="visible"><text fill-opacity=".6" dominant-baseline="middle" font-family="Arial" font-size="12" text-anchor="middle">:-D</text></symbol><symbol id="h" overflow="visible"><text fill-opacity=".75" dominant-baseline="middle" font-family="Arial" font-size="12" text-anchor="middle">&lt;3</text></symbol><symbol id="i" overflow="visible"><text fill-opacity=".9" dominant-baseline="middle" font-family="Arial" font-size="12" text-anchor="middle">:-D</text></symbol><symbol id="j" overflow="visible"><text fill-opacity=".6" dominant-baseline="middle" font-family="Arial" font-size="12" text-anchor="middle">:/</text></symbol><symbol id="k" overflow="visible"><text fill-opacity=".9" dominant-baseline="middle" font-family="Arial" font-size="12" text-anchor="middle">&lt;3</text></symbol><pattern id="l" width="420" height="420" x="0" y="0" patternContentUnits="userSpaceOnUse" patternUnits="userSpaceOnUse"><path fill="#fc0" d="M0 0h420v420H0z"/><use xlink:href="#a" transform="rotate(3 -7086.525 4465.607)"/><use xlink:href="#b" transform="rotate(-12 2006.63 -741.422)"/><use xlink:href="#c" transform="rotate(-7 3066.3 -1970.506)"/><use xlink:href="#d" transform="rotate(-2 11103.818 -4132.892)"/><use xlink:href="#e" transform="rotate(-4 5976.114 -3231.85)"/><use xlink:href="#f" transform="rotate(12 -1509.656 966.707)"/><use xlink:href="#g" transform="rotate(-10 2405.15 -1425.067)"/><use xlink:href="#h" transform="rotate(7 -2890.349 1711.211)"/><use xlink:href="#i" transform="rotate(-2 9207.459 -7117.325)"/><use xlink:href="#b" transform="rotate(-10 1803.008 -861.56)"/><use xlink:href="#j" transform="rotate(9 -2076.32 1640.067)"/><use xlink:href="#k" transform="rotate(-4 4324.984 -1927.628)"/></pattern></defs><path fill="url(#l)" d="M116.67 408.9c.08-1.81.26-5.22.64-9.56.33-3.84.6-6.87 1.2-10.95a161 161 0 0 1 4.51-20.43c.89-3.02 2.47-8.33 5.25-14.76a94 94 0 0 1 9.94-18.19 94 94 0 0 1 8.47-10.21c2.41-2.56 5.66-5.51 12.15-11.41a127 127 0 0 1 8.1-6.96c1.76-1.36 3.36-2.48 6.54-4.73 3.21-2.26 4.81-3.4 6.6-4.53.87-.56 1.83-1.14 3.26-2.12 3-2.07 3.79-2.93 4.1-3.29 1.62-1.88 1.92-3.46 2.13-3.4.53.15-1.62 9.63-4.33 20.22-3.51 13.74-3.73 14.58-4.02 16.53-1.28 8.81-2.38 18.65 1.74 23.14 4.62 5.01 14.39-.48 23.68-5.7a82 82 0 0 0 18.12-14.15c5.44-5.59 10.27-11.95 10.27-11.95a179 179 0 0 1 6.24-8.68 59 59 0 0 1 4.09-5.05c.99-1 7.17-7.26 13.18-6.34 3.17.48 4.17 2.64 14.27 15.75 4.06 5.28 4.78 6.04 5.95 7.54 1.05 1.34 1.78 2.36 1.97 2.61 2.14 2.93 8.7 11.3 10.47 13.6 1.57 2.04 6.56 8.56 10.68 16.7 6.77 13.35 8.43 25.59 9.21 31.74.85 6.75.9 12.24.92 16.7.05 7.62-.41 14.08-.92 18.99H116.39c0-3.98.12-7.69.28-11.1Z"/><path fill="none" stroke="#000" stroke-opacity=".25" d="M116.67 408.9c.08-1.81.26-5.22.64-9.56.33-3.84.6-6.87 1.2-10.95a161 161 0 0 1 4.51-20.43c.89-3.02 2.47-8.33 5.25-14.76a94 94 0 0 1 9.94-18.19 94 94 0 0 1 8.47-10.21c2.41-2.56 5.66-5.51 12.15-11.41a127 127 0 0 1 8.1-6.96c1.76-1.36 3.36-2.48 6.54-4.73 3.21-2.26 4.81-3.4 6.6-4.53.87-.56 1.83-1.14 3.26-2.12 3-2.07 3.79-2.93 4.1-3.29 1.62-1.88 1.92-3.46 2.13-3.4.53.15-1.62 9.63-4.33 20.22-3.51 13.74-3.73 14.58-4.02 16.53-1.28 8.81-2.38 18.65 1.74 23.14 4.62 5.01 14.39-.48 23.68-5.7a82 82 0 0 0 18.12-14.15c5.44-5.59 10.27-11.95 10.27-11.95a179 179 0 0 1 6.24-8.68 59 59 0 0 1 4.09-5.05c.99-1 7.17-7.26 13.18-6.34 3.17.48 4.17 2.64 14.27 15.75 4.06 5.28 4.78 6.04 5.95 7.54 1.05 1.34 1.78 2.36 1.97 2.61 2.14 2.93 8.7 11.3 10.47 13.6 1.57 2.04 6.56 8.56 10.68 16.7 6.77 13.35 8.43 25.59 9.21 31.74.85 6.75.9 12.24.92 16.7.05 7.62-.41 14.08-.92 18.99H116.39c0-3.98.12-7.69.28-11.1Z"/></svg>