<svg xmlns="http://www.w3.org/2000/svg" viewBox="0 0 420 420"><defs><pattern id="a" width="420" height="420" x="0" y="0" patternContentUnits="userSpaceOnUse" patternUnits="userSpaceOnUse"><path fill="#fc0" d="M0 0h420v420H0z"/><path fill="#ff5fa2" d="m209.49 401.31 6.92-8.55 81.6 66.08-6.92 8.55z"/><path fill="#ff5fa2" d="m209.49 401.31 6.92-8.55 73.83 59.79-6.92 8.55z"/><path fill="#f43f5e" d="m-267.27-1.49 3.15-3.88 783.36 634.35-3.15 3.89zm3.15-3.88 8.18-10.1 783.36 634.35-8.18 10.1z"/><path fill="#fc0" d="m-255.31-16.25 7.55-9.33L535.6 608.78l-7.55 9.32z"/><path fill="#ff5fa2" d="m245.73 374.04 10.07-12.43 68.38 55.38-10.06 12.43z"/><path fill="#f43f5e" d="m-237.7-38.01 2.53-3.11 783.36 634.36-2.52 3.1z"/><path fill="#ff5fa2" d="m-235.17-41.12 8.8-10.88L557 582.36l-8.81 10.88z"/><path fill="#f43f5e" d="m251.43 333.63 10.07-12.44 80.83 65.45-10.07 12.43z"/><path fill="#fc0" d="m-214.4-66.77 4.4-5.44 783.36 634.36-4.4 5.44z"/><path fill="#ff5fa2" d="m-209.37-72.98 6.3-7.77L580.27 553.6l-6.29 7.77z"/><path fill="#f43f5e" d="m256.7 288.99 3.77-4.66 96.37 78.03-3.78 4.67z"/><path fill="#fc0" d="m-198.04-86.97 8.8-10.88L594.14 536.5l-8.81 10.88z"/><path fill="#ff5fa2" d="m-188.6-98.63 4.4-5.44L599.16 530.3l-4.4 5.44z"/><path fill="#f43f5e" d="m267.18 260.16 7.55-9.33 83.15 67.34-7.55 9.33z"/><path fill="#ff5fa2" d="m-174.76-115.73 8.18-10.1L616.8 508.53l-8.18 10.1zm8.81-10.88 7.55-9.32 783.37 634.35-7.56 9.33z"/><path fill="#f43f5e" d="m-157.14-137.49 8.18-10.1 783.37 634.36-8.18 10.1z"/><path fill="#fc0" d="m-148.96-147.59 5.67-7 783.36 634.36-5.66 7z"/><path fill="#f43f5e" d="m-143.3-154.58 6.93-8.55 783.36 634.35-6.92 8.55z"/><path fill="#fc0" d="m335.21 217.46 4.4-5.44 92.48 74.89-4.4 5.44z"/><path fill="#ff5fa2" d="m-129.45-171.68 9.44-11.66 783.37 634.36-9.44 11.65z"/><path fill="#fc0" d="m-118.75-184.9 5.66-6.99 783.37 634.36-5.67 7z"/><path fill="#f43f5e" d="m-112.46-192.66 5.67-7L676.57 434.7l-5.66 7z"/><path fill="#ff5fa2" d="m-106.16-200.43 6.92-8.55 783.36 634.35-6.92 8.55z"/><path fill="#f43f5e" d="m394.25 190.64 5.66-7 58.29 47.2-5.67 7z"/></pattern></defs><path fill="url(#a)" d="M128.2 401.31c.89-8.3 2.12-14.2 3.62-21.48 2.43-11.77 3.69-17.92 6.76-25.21.91-2.17 2.33-5.25 4.7-10.42a129 129 0 0 1 4.34-8.91c1.8-3.26 3.34-5.55 4.7-7.58a128 128 0 0 1 10.12-13.08c2.61-3.02 3.96-4.58 6.14-6.44q1.17-1 2.24-1.8c.53-.39 1.67-1.22 4.8-3.13 2.84-1.72 2.76-1.56 4.11-2.46 2.72-1.81 3.29-2.62 3.6-2.43.84.5-3.38 6.34-5.71 14.93a388 388 0 0 0-4.34 18.38c-1.28 6.05-1.93 9.07-2.35 12.13-.65 4.68-1.08 7.72-.72 11.94.28 3.33.84 9.12 4.59 11.5 0 0 .19.14.4.24 1.86.88 7.74.99 34.3-18.38 24.88-18.15 34.26-25.86 34.33-25.92 6.42-4.64 23.54-16.85 25.02-15.34.09.09.72.86 1.23 1.5.4.5.75.96 1.42 1.84a129 129 0 0 1 2.75 3.68c.99 1.34 1.04 1.42 1.34 1.8.47.61.63.77 1.04 1.31.75.98 1.11 1.47 1.12 1.7.06.99-1.56 1.58-3.58 3.02-1.27.9-2.03 1.67-3.27 2.91-3.22 3.22-5.31 6.82-7.04 10.28-8.15 15.2-10.91 28.08-10.91 28.08-1.96 6.42-3.02 14.28-1.9 28.84.54 7.14 1.68 16.42 4.12 27.18H127.19c0-4.84.22-11.23 1.02-18.68l.04-.03Z"/><path fill="none" stroke="#000" stroke-opacity=".25" d="M128.2 401.31c.89-8.3 2.12-14.2 3.62-21.48 2.43-11.77 3.69-17.92 6.76-25.21.91-2.17 2.33-5.25 4.7-10.42a129 129 0 0 1 4.34-8.91c1.8-3.26 3.34-5.55 4.7-7.58a128 128 0 0 1 10.12-13.08c2.61-3.02 3.96-4.58 6.14-6.44q1.17-1 2.24-1.8c.53-.39 1.67-1.22 4.8-3.13 2.84-1.72 2.76-1.56 4.11-2.46 2.72-1.81 3.29-2.62 3.6-2.43.84.5-3.38 6.34-5.71 14.93a388 388 0 0 0-4.34 18.38c-1.28 6.05-1.93 9.07-2.35 12.13-.65 4.68-1.08 7.72-.72 11.94.28 3.33.84 9.12 4.59 11.5 0 0 .19.14.4.24 1.86.88 7.74.99 34.3-18.38 24.88-18.15 34.26-25.86 34.33-25.92 6.42-4.64 23.54-16.85 25.02-15.34.09.09.72.86 1.23 1.5.4.5.75.96 1.42 1.84a129 129 0 0 1 2.75 3.68c.99 1.34 1.04 1.42 1.34 1.8.47.61.63.77 1.04 1.31.75.98 1.11 1.47 1.12 1.7.06.99-1.56 1.58-3.58 3.02-1.27.9-2.03 1.67-3.27 2.91-3.22 3.22-5.31 6.82-7.04 10.28-8.15 15.2-10.91 28.08-10.91 28.08-1.96 6.42-3.02 14.28-1.9 28.84.54 7.14 1.68 16.42 4.12 27.18H127.19c0-4.84.22-11.23 1.02-18.68l.04-.03Z"/></svg>