<svg xmlns="http://www.w3.org/2000/svg" viewBox="0 0 420 420"><defs><pattern id="a" width="420" height="420" x="0" y="0" patternContentUnits="userSpaceOnUse" patternUnits="userSpaceOnUse"><path fill="#111" d="M0 0h420v420H0z"/><path fill="#111" d="m632.64-102.4 2.06 5.65L-312.51 248l-2.06-5.64z"/><path fill="#00d18f" d="m634.7-96.75 2.73 7.51-947.2 344.76-2.74-7.52z"/><path fill="#14b8a6" d="m637.77-88.3 1.37 3.76-947.2 344.76-1.38-3.76z"/><path fill="#111" d="m639.14-84.54 2.4 6.58-947.21 344.76-2.4-6.58z"/><path fill="#00d18f" d="m641.88-77.02 3.08 8.46-947.21 344.75-3.08-8.45z"/><path fill="#14b8a6" d="m644.96-68.56 3.76 10.33-947.21 344.76-3.76-10.34z"/><path fill="#111" d="m649.06-57.29 2.05 5.64-947.2 344.76-2.06-5.64z"/><path fill="#00d18f" d="m116.77 143.9 3.08 8.46-131.56 47.88-3.08-8.46zm-46.38 27.52 1.7 4.7-81.75 29.76-1.7-4.7z"/><path fill="#14b8a6" d="m656.93-35.67 1.7 4.7-947.2 344.75-1.71-4.7z"/><path fill="#111" d="m658.64-30.98 3.08 8.46-947.21 344.76-3.08-8.46z"/><path fill="#00d18f" d="m662.4-20.64 2.74 7.52-947.21 344.76-2.74-7.52z"/><path fill="#14b8a6" d="m665.48-12.18 3.42 9.4-947.21 344.75-3.42-9.4z"/><path fill="#111" d="M668.9-2.78 673 8.49l-947.2 344.76-4.11-11.28z"/><path fill="#00d18f" d="m137.72 204.38 1.71 4.7-106.18 38.65-1.71-4.7z"/><path fill="#14b8a6" d="m119.44 218.49 2.05 5.63-99.6 36.26-2.06-5.64z"/><path fill="#111" d="m677.79 21.65 3.08 8.45-947.21 344.76-3.08-8.46z"/><path fill="#00d18f" d="m681.21 31.04 2.4 6.58-947.21 344.76-2.4-6.58z"/><path fill="#14b8a6" d="m683.6 37.62 1.03 2.82-947.2 344.76-1.04-2.82z"/><path fill="#111" d="m684.97 41.38 2.05 5.64-947.2 344.76-2.06-5.64z"/><path fill="#111" d="m91.26 263.86 3.76 10.34-89.27 32.49L2 296.35z"/><path fill="#111" d="m145.77 255.73 1.02 2.82-72.35 26.33-1.03-2.82z"/><path fill="#14b8a6" d="m142.78 262.14 2.4 6.57-93.98 34.2-2.4-6.57z"/><path fill="#111" d="m695.23 69.57 3.08 8.46-947.2 344.76-3.09-8.46z"/><path fill="#00d18f" d="m698.31 78.03 1.71 4.7-947.2 344.75-1.72-4.7zm2.05 5.64L704.13 94l-947.21 344.76-3.77-10.34z"/><path fill="#14b8a6" d="m704.47 94.94 1.37 3.76-947.21 344.76-1.37-3.76z"/><path fill="#111" d="m706.18 99.64 3.08 8.46-947.21 344.76-3.08-8.46z"/><path fill="#00d18f" d="m709.6 109.04 3.76 10.33-947.2 344.76-3.77-10.34z"/><path fill="#14b8a6" d="m713.7 120.32 1.37 3.75-947.2 344.76-1.38-3.76z"/><path fill="#111" d="m715.07 124.07 3.42 9.4-947.2 344.76-3.43-9.4z"/><path fill="#00d18f" d="m718.5 133.47 2.38 6.58-947.2 344.76-2.4-6.58z"/><path fill="#14b8a6" d="m720.89 140.05 1.7 4.7-947.2 344.75-1.71-4.7z"/><path fill="#111" d="m722.6 144.75 1.02 2.82-947.2 344.75-1.04-2.82z"/><path fill="#00d18f" d="m183.64 345.17 3.76 10.33-73.3 26.68-3.76-10.34z"/><path fill="#14b8a6" d="m728.07 159.78 2.05 5.64-947.21 344.76-2.05-5.64z"/></pattern></defs><path fill="url(#a)" d="M128.2 401.31c.89-8.3 2.12-14.2 3.62-21.48 2.43-11.77 3.69-17.92 6.76-25.21.91-2.17 2.33-5.25 4.7-10.42a129 129 0 0 1 4.34-8.91c1.8-3.26 3.34-5.55 4.7-7.58a128 128 0 0 1 10.12-13.08c2.61-3.02 3.96-4.58 6.14-6.44q1.17-1 2.24-1.8c.53-.39 1.67-1.22 4.8-3.13 2.84-1.72 2.76-1.56 4.11-2.46 2.72-1.81 3.29-2.62 3.6-2.43.84.5-3.38 6.34-5.71 14.93a388 388 0 0 0-4.34 18.38c-1.28 6.05-1.93 9.07-2.35 12.13-.65 4.68-1.08 7.72-.72 11.94.28 3.33.84 9.12 4.59 11.5 0 0 .19.14.4.24 1.86.88 7.74.99 34.3-18.38 24.88-18.15 34.26-25.86 34.33-25.92 6.42-4.64 23.54-16.85 25.02-15.34.09.09.72.86 1.23 1.5.4.5.75.96 1.42 1.84a129 129 0 0 1 2.75 3.68c.99 1.34 1.04 1.42 1.34 1.8.47.61.63.77 1.04 1.31.75.98 1.11 1.47 1.12 1.7.06.99-1.56 1.58-3.58 3.02-1.27.9-2.03 1.67-3.27 2.91-3.22 3.22-5.31 6.82-7.04 10.28-8.15 15.2-10.91 28.08-10.91 28.08-1.96 6.42-3.02 14.28-1.9 28.84.54 7.14 1.68 16.42 4.12 27.18H127.19c0-4.84.22-11.23 1.02-18.68l.04-.03Z"/><path fill="none" stroke="#000" stroke-opacity=".25" d="M128.2 401.31c.89-8.3 2.12-14.2 3.62-21.48 2.43-11.77 3.69-17.92 6.76-25.21.91-2.17 2.33-5.25 4.7-10.42a129 129 0 0 1 4.34-8.91c1.8-3.26 3.34-5.55 4.7-7.58a128 128 0 0 1 10.12-13.08c2.61-3.02 3.96-4.58 6.14-6.44q1.17-1 2.24-1.8c.53-.39 1.67-1.22 4.8-3.13 2.84-1.72 2.76-1.56 4.11-2.46 2.72-1.81 3.29-2.62 3.6-2.43.84.5-3.38 6.34-5.71 14.93a388 388 0 0 0-4.34 18.38c-1.28 6.05-1.93 9.07-2.35 12.13-.65 4.68-1.08 7.72-.72 11.94.28 3.33.84 9.12 4.59 11.5 0 0 .19.14.4.24 1.86.88 7.74.99 34.3-18.38 24.88-18.15 34.26-25.86 34.33-25.92 6.42-4.64 23.54-16.85 25.02-15.34.09.09.72.86 1.23 1.5.4.5.75.96 1.42 1.84a129 129 0 0 1 2.75 3.68c.99 1.34 1.04 1.42 1.34 1.8.47.61.63.77 1.04 1.31.75.98 1.11 1.47 1.12 1.7.06.99-1.56 1.58-3.58 3.02-1.27.9-2.03 1.67-3.27 2.91-3.22 3.22-5.31 6.82-7.04 10.28-8.15 15.2-10.91 28.08-10.91 28.08-1.96 6.42-3.02 14.28-1.9 28.84.54 7.14 1.68 16.42 4.12 27.18H127.19c0-4.84.22-11.23 1.02-18.68l.04-.03Z"/></svg>