<svg xmlns="http://www.w3.org/2000/svg" xmlns:xlink="http://www.w3.org/1999/xlink" viewBox="0 0 420 420"><defs><symbol id="a" overflow="visible"><text dominant-baseline="middle" font-family="Arial" font-size="12" text-anchor="middle">&lt;3</text></symbol><symbol id="b" overflow="visible"><text fill-opacity=".45" dominant-baseline="middle" font-family="Arial" font-size="12" text-anchor="middle">:-O</text></symbol><symbol id="c" overflow="visible"><text fill-opacity=".45" dominant-baseline="middle" font-family="Arial" font-size="12" text-anchor="middle">;-)</text></symbol><symbol id="d" overflow="visible"><text fill-opacity=".75" dominant-baseline="middle" font-family="Arial" font-size="12" text-anchor="middle">&lt;3</text></symbol><symbol id="e" overflow="visible"><text dominant-baseline="middle" font-family="Arial" font-size="12" text-anchor="middle">:-P</text></symbol><symbol id="f" overflow="visible"><text fill-opacity=".45" dominant-baseline="middle" font-family="Arial" font-size="12" text-anchor="middle">(..)</text></symbol><symbol id="g" overflow="visible"><text fill-opacity=".75" dominant-baseline="middle" font-family="Arial" font-size="12" text-anchor="middle">:/</text></symbol><symbol id="h" overflow="visible"><text fill-opacity=".6" dominant-baseline="middle" font-family="Arial" font-size="12" text-anchor="middle">:-D</text></symbol><pattern id="i" width="420" height="420" x="0" y="0" patternContentUnits="userSpaceOnUse" patternUnits="userSpaceOnUse"><path fill="#e6e6e6" d="M0 0h420v420H0z"/><use xlink:href="#a" transform="rotate(-5 4718.657 -2432.933)"/><use xlink:href="#b" transform="rotate(6 -3654.862 1636.126)"/><use xlink:href="#c" transform="translate(200 375)"/><use xlink:href="#d" transform="rotate(4 -5121.434 3590.714)"/><use xlink:href="#e" transform="rotate(9 -1925.227 1123.172)"/><use xlink:href="#d" transform="translate(156 354)"/><use xlink:href="#f" transform="rotate(14 -1178.451 1107.816)"/><use xlink:href="#g" transform="rotate(-6 3975.511 -1561.505)"/><use xlink:href="#h" transform="rotate(-9 2113.433 -1105.767)"/></pattern></defs><path fill="url(#i)" d="M128.2 401.31c.89-8.3 2.12-14.2 3.62-21.48 2.43-11.77 3.69-17.92 6.76-25.21.91-2.17 2.33-5.25 4.7-10.42a129 129 0 0 1 4.34-8.91c1.8-3.26 3.34-5.55 4.7-7.58a128 128 0 0 1 10.12-13.08c2.61-3.02 3.96-4.58 6.14-6.44q1.17-1 2.24-1.8c.53-.39 1.67-1.22 4.8-3.13 2.84-1.72 2.76-1.56 4.11-2.46 2.72-1.81 3.29-2.62 3.6-2.43.84.5-3.38 6.34-5.71 14.93a388 388 0 0 0-4.34 18.38c-1.28 6.05-1.93 9.07-2.35 12.13-.65 4.68-1.08 7.72-.72 11.94.28 3.33.84 9.12 4.59 11.5 0 0 .19.14.4.24 1.86.88 7.74.99 34.3-18.38 24.88-18.15 34.26-25.86 34.33-25.92 6.42-4.64 23.54-16.85 25.02-15.34.09.09.72.86 1.23 1.5.4.5.75.96 1.42 1.84a129 129 0 0 1 2.75 3.68c.99 1.34 1.04 1.42 1.34 1.8.47.61.63.77 1.04 1.31.75.98 1.11 1.47 1.12 1.7.06.99-1.56 1.58-3.58 3.02-1.27.9-2.03 1.67-3.27 2.91-3.22 3.22-5.31 6.82-7.04 10.28-8.15 15.2-10.91 28.08-10.91 28.08-1.96 6.42-3.02 14.28-1.9 28.84.54 7.14 1.68 16.42 4.12 27.18H127.19c0-4.84.22-11.23 1.02-18.68l.04-.03Z"/><path fill="none" stroke="#000" stroke-opacity=".25" d="M128.2 401.31c.89-8.3 2.12-14.2 3.62-21.48 2.43-11.77 3.69-17.92 6.76-25.21.91-2.17 2.33-5.25 4.7-10.42a129 129 0 0 1 4.34-8.91c1.8-3.26 3.34-5.55 4.7-7.58a128 128 0 0 1 10.12-13.08c2.61-3.02 3.96-4.58 6.14-6.44q1.17-1 2.24-1.8c.53-.39 1.67-1.22 4.8-3.13 2.84-1.72 2.76-1.56 4.11-2.46 2.72-1.81 3.29-2.62 3.6-2.43.84.5-3.38 6.34-5.71 14.93a388 388 0 0 0-4.34 18.38c-1.28 6.05-1.93 9.07-2.35 12.13-.65 4.68-1.08 7.72-.72 11.94.28 3.33.84 9.12 4.59 11.5 0 0 .19.14.4.24 1.86.88 7.74.99 34.3-18.38 24.88-18.15 34.26-25.86 34.33-25.92 6.42-4.64 23.54-16.85 25.02-15.34.09.09.72.86 1.23 1.5.4.5.75.96 1.42 1.84a129 129 0 0 1 2.75 3.68c.99 1.34 1.04 1.42 1.34 1.8.47.61.63.77 1.04 1.31.75.98 1.11 1.47 1.12 1.7.06.99-1.56 1.58-3.58 3.02-1.27.9-2.03 1.67-3.27 2.91-3.22 3.22-5.31 6.82-7.04 10.28-8.15 15.2-10.91 28.08-10.91 28.08-1.96 6.42-3.02 14.28-1.9 28.84.54 7.14 1.68 16.42 4.12 27.18H127.19c0-4.84.22-11.23 1.02-18.68l.04-.03Z"/></svg>