<svg xmlns="http://www.w3.org/2000/svg" viewBox="0 0 420 420"><defs><pattern id="a" width="420" height="420" x="0" y="0" patternContentUnits="userSpaceOnUse" patternUnits="userSpaceOnUse"><path fill="#fc0" d="M0 0h420v420H0z"/><path fill="#23c55e" d="m-317.94 156.65 6.1-13.7L609 552.94l-6.1 13.7z"/><path fill="#f97316" d="m211.52 373.78 2.44-5.48 128.8 57.34-2.43 5.49z"/><path fill="#f43f5e" d="m214.36 367.38 4.48-10.05 106.88 47.6-4.47 10.04z"/><path fill="#111" d="m207.78 350.22 2.03-4.57 135.2 60.2-2.03 4.57zm-508.24-232.85 2.44-5.48 920.86 409.99-2.44 5.48z"/><path fill="#06b6d4" d="m-297.6 110.98 2.03-4.57L625.28 516.4l-2.03 4.57z"/><path fill="#0ea5e9" d="m-295.57 106.4 4.88-10.95 920.85 409.99-4.88 10.96z"/><path fill="#00d18f" d="m-289.88 93.62 2.03-4.57 920.86 410-2.04 4.56z"/><path fill="#fc0" d="m-287.44 88.14 6.1-13.7 920.86 409.98-6.1 13.7z"/><path fill="#23c55e" d="m-281.34 74.43 2.44-5.48 920.86 410-2.44 5.47z"/><path fill="#f97316" d="m-278.5 68.04 6.1-13.7 920.86 409.99-6.1 13.7z"/><path fill="#23c55e" d="m244.17 283.23 6.5-14.62 138.87 61.83-6.51 14.61z"/><path fill="#f97316" d="m238.3 262 2.43-5.48 120.6 53.7-2.45 5.47z"/><path fill="#0ea5e9" d="m219.62 244.93 3.26-7.3 99.57 44.33-3.25 7.3z"/><path fill="#00d18f" d="m-258.56 23.28 4.47-10.05 920.86 409.99-4.48 10.05z"/><path fill="#fc0" d="m290.39 255.64 6.1-13.7 118.76 52.87-6.1 13.7z"/><path fill="#23c55e" d="m-247.58-1.39 2.44-5.48 920.85 409.99-2.44 5.48z"/><path fill="#f43f5e" d="m242.7 210.33 3.25-7.31 146.17 65.08-3.26 7.3z"/><path fill="#0ea5e9" d="m-241.48-15.1 5.29-11.87 920.85 410-5.28 11.87z"/><path fill="#111" d="m-235.78-27.88 3.66-8.22 920.85 409.99-3.66 8.22z"/><path fill="#06b6d4" d="m-231.72-37.02 4.48-10.05 920.85 410-4.47 10.04z"/><path fill="#ff5fa2" d="m284.75 179.8 3.25-7.32 155.3 69.15-3.25 7.3z"/><path fill="#ff5fa2" d="m283.84 179.39 3.25-7.31 72.17 32.13-3.25 7.3z"/><path fill="#0ea5e9" d="m-222.77-57.12 6.1-13.7 920.86 410-6.1 13.7z"/><path fill="#00d18f" d="m-216.26-71.73 3.66-8.22 920.85 409.99-3.66 8.22z"/><path fill="#06b6d4" d="m-212.6-79.95 2.44-5.49 920.85 410-2.44 5.48z"/><path fill="#0ea5e9" d="m-209.75-86.35 2.03-4.57 920.85 410-2.03 4.56z"/><path fill="#00d18f" d="m-207.31-91.83 4.47-10.05L718.02 308.1l-4.48 10.05z"/><path fill="#fc0" d="m-202.43-102.8 4.07-9.13 920.85 409.99-4.07 9.14z"/><path fill="#23c55e" d="m310.38 112.39 5.29-11.88 105.06 46.78-5.3 11.87z"/><path fill="#f97316" d="m-192.67-124.72 1.63-3.65L729.8 281.62l-1.63 3.65z"/><path fill="#f43f5e" d="m-191.04-128.37 6.5-14.62L736.32 267l-6.51 14.62z"/><path fill="#fc0" d="m295.08 70.55 2.44-5.48 166.26 74.02-2.44 5.48z"/><path fill="#23c55e" d="m-181.69-149.38 6.1-13.7L745.27 246.9l-6.1 13.7z"/></pattern></defs><path fill="url(#a)" d="M110.06 419.74a382 382 0 0 1 3.64-34.59c.68-4.52 1.02-6.79 1.56-9.34a182 182 0 0 1 3.45-13.33c1.87-4.69 3.3-8.27 5.87-12.99a85 85 0 0 1 5.45-8.77c1.62-2.28 3.03-3.99 4.53-5.83a71 71 0 0 1 5.26-6.01c1.26-1.27 1.03-.91 5.32-4.85 2.5-2.3 2.7-2.52 4.34-3.99a87 87 0 0 1 4.87-4.17c1.81-1.43 2.11-1.5 4.82-3.59 1.53-1.17 1.86-1.47 3.4-2.67.14-.11 3.2-2.5 6.05-4.54 3.63-2.61 3.92-2.48 7.8-5.15 4.07-2.79 6.09-4.18 7.59-5.81 1.47-1.6 4.21-4.57 4.96-8.86.06-.38-.02.03-.01-6.7 0-3.07.03-4.39-.08-6.54-.06-1.2-.18-2.91-.22-3.48l-.25-3.49-.32-4.42c-.09-1.36-.15-2.46-.18-3.15a86 86 0 0 1 6.1-1.7c3.56-.84 6.23-1.23 10.57-1.87 4.75-.69 7.12-1.03 9.73-1.15 2.7-.12 5.01.03 9.52.33 8.23.56 12.62.86 18.41 2.21 1.37.32 3.74.91 6.64 1.85 3.04.98 5.49 1.79 8.54 3.41 1.72.91 3.04 1.63 4.37 2.68.98.77 1.72 1.49 2.22 2.02-.18 3.22-.38 6.03-.58 8.34a185 185 0 0 1-.53 5.83c-.12 1.1-.23 2.03-.39 3.67-.16 1.59-.12 1.55-.29 3.36-.3 3.28-.41 3.69-.39 4.92 0 0 .02 1.55.31 3.15a26 26 0 0 0 2.29 6.45c1.06 2 2.31 3.5 4.8 6.49 1.75 2.1 1.79 1.98 4.54 5.19 2.07 2.42 3.11 3.63 4.28 5.19 2.01 2.68 1.92 2.99 3.63 5.19 1.82 2.34 2.3 2.47 4.41 4.93a93 93 0 0 1 5.19 7c2.31 3.29 3.49 4.98 4.93 7.26 1.68 2.68 2.76 4.66 5.71 10.25 3.78 7.18 5.68 10.77 5.97 11.42a78 78 0 0 1 5.71 19.33c.8 4.54 1.06 9.57 1.56 19.46.35 7.11.54 12.97.65 16.98l-197.04.09h-8.69Z"/><path fill="none" stroke="#000" stroke-opacity=".25" d="M110.06 419.74a382 382 0 0 1 3.64-34.59c.68-4.52 1.02-6.79 1.56-9.34a182 182 0 0 1 3.45-13.33c1.87-4.69 3.3-8.27 5.87-12.99a85 85 0 0 1 5.45-8.77c1.62-2.28 3.03-3.99 4.53-5.83a71 71 0 0 1 5.26-6.01c1.26-1.27 1.03-.91 5.32-4.85 2.5-2.3 2.7-2.52 4.34-3.99a87 87 0 0 1 4.87-4.17c1.81-1.43 2.11-1.5 4.82-3.59 1.53-1.17 1.86-1.47 3.4-2.67.14-.11 3.2-2.5 6.05-4.54 3.63-2.61 3.92-2.48 7.8-5.15 4.07-2.79 6.09-4.18 7.59-5.81 1.47-1.6 4.21-4.57 4.96-8.86.06-.38-.02.03-.01-6.7 0-3.07.03-4.39-.08-6.54-.06-1.2-.18-2.91-.22-3.48l-.25-3.49-.32-4.42c-.09-1.36-.15-2.46-.18-3.15a86 86 0 0 1 6.1-1.7c3.56-.84 6.23-1.23 10.57-1.87 4.75-.69 7.12-1.03 9.73-1.15 2.7-.12 5.01.03 9.52.33 8.23.56 12.62.86 18.41 2.21 1.37.32 3.74.91 6.64 1.85 3.04.98 5.49 1.79 8.54 3.41 1.72.91 3.04 1.63 4.37 2.68.98.77 1.72 1.49 2.22 2.02-.18 3.22-.38 6.03-.58 8.34a185 185 0 0 1-.53 5.83c-.12 1.1-.23 2.03-.39 3.67-.16 1.59-.12 1.55-.29 3.36-.3 3.28-.41 3.69-.39 4.92 0 0 .02 1.55.31 3.15a26 26 0 0 0 2.29 6.45c1.06 2 2.31 3.5 4.8 6.49 1.75 2.1 1.79 1.98 4.54 5.19 2.07 2.42 3.11 3.63 4.28 5.19 2.01 2.68 1.92 2.99 3.63 5.19 1.82 2.34 2.3 2.47 4.41 4.93a93 93 0 0 1 5.19 7c2.31 3.29 3.49 4.98 4.93 7.26 1.68 2.68 2.76 4.66 5.71 10.25 3.78 7.18 5.68 10.77 5.97 11.42a78 78 0 0 1 5.71 19.33c.8 4.54 1.06 9.57 1.56 19.46.35 7.11.54 12.97.65 16.98l-197.04.09h-8.69Z"/></svg>