<svg xmlns="http://www.w3.org/2000/svg" xmlns:xlink="http://www.w3.org/1999/xlink" viewBox="0 0 420 420"><defs><symbol id="a" overflow="visible"><text fill-opacity=".6" dominant-baseline="middle" font-family="Arial" font-size="12" text-anchor="middle">^^</text></symbol><symbol id="b" overflow="visible"><text fill-opacity=".6" dominant-baseline="middle" font-family="Arial" font-size="12" text-anchor="middle">:-)</text></symbol><symbol id="c" overflow="visible"><text fill-opacity=".75" dominant-baseline="middle" font-family="Arial" font-size="12" text-anchor="middle">(x_x)</text></symbol><symbol id="d" overflow="visible"><text dominant-baseline="middle" font-family="Arial" font-size="12" text-anchor="middle">:-(</text></symbol><symbol id="e" overflow="visible"><text fill-opacity=".9" dominant-baseline="middle" font-family="Arial" font-size="12" text-anchor="middle">(..)</text></symbol><symbol id="f" overflow="visible"><text dominant-baseline="middle" font-family="Arial" font-size="12" text-anchor="middle">(^^)</text></symbol><symbol id="g" overflow="visible"><text fill-opacity=".45" dominant-baseline="middle" font-family="Arial" font-size="12" text-anchor="middle">8-)</text></symbol><symbol id="h" overflow="visible"><text fill-opacity=".45" dominant-baseline="middle" font-family="Arial" font-size="12" text-anchor="middle">^^</text></symbol><pattern id="i" width="420" height="420" x="0" y="0" patternContentUnits="userSpaceOnUse" patternUnits="userSpaceOnUse"><path fill="#7c4dff" d="M0 0h420v420H0z"/><use xlink:href="#a" transform="rotate(-13 1587.625 -512.597)"/><use xlink:href="#b" transform="rotate(-12 2000.058 -1136.511)"/><use xlink:href="#c" transform="rotate(-7 3079.499 -1649.684)"/><use xlink:href="#d" transform="rotate(3 -7770.728 3146.011)"/><use xlink:href="#e" transform="rotate(8 -2634.326 1168.596)"/><use xlink:href="#f" transform="rotate(10 -1808.109 1713.057)"/><use xlink:href="#g" transform="rotate(10 -2054.635 1199.06)"/><use xlink:href="#h" transform="rotate(-12 2039.916 -829.309)"/><use xlink:href="#d" transform="translate(159 297)"/></pattern></defs><path fill="url(#i)" d="M110.06 419.74a382 382 0 0 1 3.64-34.59c.68-4.52 1.02-6.79 1.56-9.34a182 182 0 0 1 3.45-13.33c1.87-4.69 3.3-8.27 5.87-12.99a85 85 0 0 1 5.45-8.77c1.62-2.28 3.03-3.99 4.53-5.83a71 71 0 0 1 5.26-6.01c1.26-1.27 1.03-.91 5.32-4.85 2.5-2.3 2.7-2.52 4.34-3.99a87 87 0 0 1 4.87-4.17c1.81-1.43 2.11-1.5 4.82-3.59 1.53-1.17 1.86-1.47 3.4-2.67.14-.11 3.2-2.5 6.05-4.54 3.63-2.61 3.92-2.48 7.8-5.15 4.07-2.79 6.09-4.18 7.59-5.81 1.47-1.6 4.21-4.57 4.96-8.86.06-.38-.02.03-.01-6.7 0-3.07.03-4.39-.08-6.54-.06-1.2-.18-2.91-.22-3.48l-.25-3.49-.32-4.42c-.09-1.36-.15-2.46-.18-3.15a86 86 0 0 1 6.1-1.7c3.56-.84 6.23-1.23 10.57-1.87 4.75-.69 7.12-1.03 9.73-1.15 2.7-.12 5.01.03 9.52.33 8.23.56 12.62.86 18.41 2.21 1.37.32 3.74.91 6.64 1.85 3.04.98 5.49 1.79 8.54 3.41 1.72.91 3.04 1.63 4.37 2.68.98.77 1.72 1.49 2.22 2.02-.18 3.22-.38 6.03-.58 8.34a185 185 0 0 1-.53 5.83c-.12 1.1-.23 2.03-.39 3.67-.16 1.59-.12 1.55-.29 3.36-.3 3.28-.41 3.69-.39 4.92 0 0 .02 1.55.31 3.15a26 26 0 0 0 2.29 6.45c1.06 2 2.31 3.5 4.8 6.49 1.75 2.1 1.79 1.98 4.54 5.19 2.07 2.42 3.11 3.63 4.28 5.19 2.01 2.68 1.92 2.99 3.63 5.19 1.82 2.34 2.3 2.47 4.41 4.93a93 93 0 0 1 5.19 7c2.31 3.29 3.49 4.98 4.93 7.26 1.68 2.68 2.76 4.66 5.71 10.25 3.78 7.18 5.68 10.77 5.97 11.42a78 78 0 0 1 5.71 19.33c.8 4.54 1.06 9.57 1.56 19.46.35 7.11.54 12.97.65 16.98l-197.04.09h-8.69Z"/><path fill="none" stroke="#000" stroke-opacity=".25" d="M110.06 419.74a382 382 0 0 1 3.64-34.59c.68-4.52 1.02-6.79 1.56-9.34a182 182 0 0 1 3.45-13.33c1.87-4.69 3.3-8.27 5.87-12.99a85 85 0 0 1 5.45-8.77c1.62-2.28 3.03-3.99 4.53-5.83a71 71 0 0 1 5.26-6.01c1.26-1.27 1.03-.91 5.32-4.85 2.5-2.3 2.7-2.52 4.34-3.99a87 87 0 0 1 4.87-4.17c1.81-1.43 2.11-1.5 4.82-3.59 1.53-1.17 1.86-1.47 3.4-2.67.14-.11 3.2-2.5 6.05-4.54 3.63-2.61 3.92-2.48 7.8-5.15 4.07-2.79 6.09-4.18 7.59-5.81 1.47-1.6 4.21-4.57 4.96-8.86.06-.38-.02.03-.01-6.7 0-3.07.03-4.39-.08-6.54-.06-1.2-.18-2.91-.22-3.48l-.25-3.49-.32-4.42c-.09-1.36-.15-2.46-.18-3.15a86 86 0 0 1 6.1-1.7c3.56-.84 6.23-1.23 10.57-1.87 4.75-.69 7.12-1.03 9.73-1.15 2.7-.12 5.01.03 9.52.33 8.23.56 12.62.86 18.41 2.21 1.37.32 3.74.91 6.64 1.85 3.04.98 5.49 1.79 8.54 3.41 1.72.91 3.04 1.63 4.37 2.68.98.77 1.72 1.49 2.22 2.02-.18 3.22-.38 6.03-.58 8.34a185 185 0 0 1-.53 5.83c-.12 1.1-.23 2.03-.39 3.67-.16 1.59-.12 1.55-.29 3.36-.3 3.28-.41 3.69-.39 4.92 0 0 .02 1.55.31 3.15a26 26 0 0 0 2.29 6.45c1.06 2 2.31 3.5 4.8 6.49 1.75 2.1 1.79 1.98 4.54 5.19 2.07 2.42 3.11 3.63 4.28 5.19 2.01 2.68 1.92 2.99 3.63 5.19 1.82 2.34 2.3 2.47 4.41 4.93a93 93 0 0 1 5.19 7c2.31 3.29 3.49 4.98 4.93 7.26 1.68 2.68 2.76 4.66 5.71 10.25 3.78 7.18 5.68 10.77 5.97 11.42a78 78 0 0 1 5.71 19.33c.8 4.54 1.06 9.57 1.56 19.46.35 7.11.54 12.97.65 16.98l-197.04.09h-8.69Z"/></svg>